<?xml version="1.0" encoding="utf-8"?>
<!-- Generator: Adobe Illustrator 19.1.0, SVG Export Plug-In . SVG Version: 6.00 Build 0)  -->
<svg version="1.0" id="Layer_1" xmlns="http://www.w3.org/2000/svg" xmlns:xlink="http://www.w3.org/1999/xlink" x="0px" y="0px"
	 viewBox="0 0 362.5 218.3" enable-background="new 0 0 362.5 218.3" xml:space="preserve">
<g>
	<g enable-background="new    ">
		<g>
			<polygon fill="#BFBFBF" points="222.1,7.4 222.1,15.5 196.7,30.3 196.7,22.1 			"/>
		</g>
		<g>
			<polygon fill="#858585" points="257.5,27.9 257.5,36 222.1,15.5 222.1,7.4 			"/>
		</g>
		<g>
			<polygon fill="#BFBFBF" points="196.7,22.1 196.7,30.3 171.3,45 171.3,36.9 			"/>
		</g>
		<g>
			<polygon fill="#1C7E44" points="257.5,27.9 257.5,36 238.9,46.9 238.9,38.7 			"/>
		</g>
		<g>
			<polygon fill="#BFBFBF" points="263.9,31.5 263.9,39.7 244.9,50.7 244.9,42.6 			"/>
		</g>
		<g>
			<polygon fill="#1C7E44" points="238.9,38.7 238.9,46.9 232.2,50.7 232.2,42.6 			"/>
		</g>
		<g>
			<polygon fill="#1F8C4C" points="238.9,38.7 232.2,42.6 196.7,22.1 222.1,7.4 257.5,27.9 			"/>
		</g>
		<g>
			<polygon fill="#13572F" points="232.2,42.6 232.2,50.7 196.7,30.3 196.7,22.1 			"/>
		</g>
		<g>
			<polygon fill="#858585" points="238.1,46 238,54.1 232.2,50.7 232.2,42.6 			"/>
		</g>
		<g>
			<polygon fill="#BFBFBF" points="171.3,36.9 171.3,45 145.9,59.8 146,51.6 			"/>
		</g>
		<g>
			<polygon fill="#858585" points="308.6,57.3 308.6,65.5 263.9,39.7 263.9,31.5 			"/>
		</g>
		<g>
			<polygon fill="#BFBFBF" points="146,51.6 145.9,59.8 120.6,74.5 120.6,66.3 			"/>
		</g>
		<g>
			<polygon fill="#1F8C4C" points="308.6,57.3 289.6,68.4 244.9,42.6 263.9,31.5 			"/>
		</g>
		<g>
			<polygon fill="#1C7E44" points="308.6,57.3 308.6,65.5 289.6,76.6 289.6,68.4 			"/>
		</g>
		<g>
			<polygon fill="#13572F" points="289.6,68.4 289.6,76.6 244.9,50.7 244.9,42.6 			"/>
		</g>
		<g>
			<polygon fill="#858585" points="282.8,71.8 282.7,80 238,54.1 238.1,46 			"/>
		</g>
		<g>
			<polygon fill="#BFBFBF" points="315,61 315,69.2 296.3,80 296.3,71.9 			"/>
		</g>
		<g>
			<polygon fill="#BFBFBF" points="296.3,71.9 296.3,80 289.6,83.9 289.7,75.8 			"/>
		</g>
		<g>
			<polygon fill="#858585" points="289.7,75.8 289.6,83.9 282.7,80 282.8,71.8 			"/>
		</g>
		<g>
			<polygon fill="#858585" points="349.8,81.1 349.7,89.2 315,69.2 315,61 			"/>
		</g>
		<g>
			<polygon fill="#BFBFBF" points="114.2,70 114.2,78.2 95.2,89.2 95.2,81.1 			"/>
		</g>
		<g>
			<polygon fill="#BFBFBF" points="95.2,81.1 95.2,89.2 88.9,92.9 88.9,84.8 			"/>
		</g>
		<g>
			<polygon fill="#124928" points="158.9,88.5 158.9,96.6 120.6,74.5 120.6,66.3 			"/>
		</g>
		<g>
			<polygon fill="#13572F" points="158.9,88.5 158.9,96.6 120.6,74.5 120.6,66.4 			"/>
		</g>
		<g>
			<polygon fill="#13572F" points="273.4,125.2 273.4,133.3 145.9,59.8 146,51.6 			"/>
		</g>
		<g enable-background="new    ">
			<defs>
				<path id="SVGID_1_" enable-background="new    " d="M197.9,94.6c-12.3-3.9-27.6-3.3-39,2l0-8.2c11.4-5.3,26.7-5.9,39-2
					C197.9,89.2,197.9,91.9,197.9,94.6z"/>
			</defs>
			<clipPath id="SVGID_2_">
				<use xlink:href="#SVGID_1_"  overflow="visible"/>
			</clipPath>
			<g clip-path="url(#SVGID_2_)" enable-background="new    ">
				<path fill="#124A29" d="M200.9,87.5l0,8.2c-1.4-0.6-2.8-1-4.3-1.5l0-8.2C198.1,86.5,199.6,87,200.9,87.5"/>
				<path fill="#124D2A" d="M196.6,86.1l0,8.2c-1.2-0.3-2.5-0.7-3.7-0.9l0-8.2C194.2,85.4,195.4,85.7,196.6,86.1"/>
				<path fill="#134F2C" d="M192.9,85.2l0,8.2c-1.1-0.2-2.3-0.4-3.5-0.6l0-8.2C190.6,84.7,191.7,84.9,192.9,85.2"/>
				<path fill="#14522D" d="M189.4,84.6l0,8.2c-1.1-0.2-2.3-0.3-3.4-0.4l0-8.2C187.1,84.3,188.3,84.4,189.4,84.6"/>
				<path fill="#14552F" d="M186,84.2l0,8.2c-1.1-0.1-2.3-0.2-3.5-0.2l0-8.2C183.7,84,184.8,84.1,186,84.2"/>
				<path fill="#155830" d="M182.5,84l0,8.2c-1.2,0-2.4,0-3.6,0l0-8.2C180.1,84,181.3,84,182.5,84"/>
				<path fill="#165A32" d="M178.9,84l0,8.2c-1.3,0-2.6,0.1-3.9,0.3l0-8.2C176.3,84.1,177.6,84,178.9,84"/>
				<path fill="#165D33" d="M175.1,84.3l0,8.2c-1.5,0.2-3,0.4-4.5,0.6l0-8.2C172,84.6,173.5,84.4,175.1,84.3"/>
				<path fill="#176035" d="M170.6,84.9l0,8.2c-2.3,0.4-4.5,1-6.7,1.7l0-8.2C166,85.9,168.3,85.3,170.6,84.9"/>
				<path fill="#186336" d="M163.9,86.5l0,8.2c-1.7,0.6-3.4,1.2-5,1.9l0-8.2C160.5,87.7,162.2,87.1,163.9,86.5"/>
			</g>
		</g>
		<g>
			<polygon fill="#BFBFBF" points="88.9,84.8 88.9,92.9 82.5,96.6 82.5,88.5 			"/>
		</g>
		<g>
			<polygon fill="#858585" points="152.7,92.2 152.6,100.4 114.2,78.2 114.2,70 			"/>
		</g>
		<g enable-background="new    ">
			<defs>
				<path id="SVGID_3_" enable-background="new    " d="M197.9,94.6c0-2.7,0-5.4,0-8.2c2.9,0.9,5.7,2.1,8.2,3.6
					c1.6,0.9,3.1,1.9,4.3,3c0,2.7,0,5.4,0,8.2c-1.2-1.1-2.7-2.1-4.3-3C203.6,96.7,200.8,95.5,197.9,94.6z"/>
			</defs>
			<clipPath id="SVGID_4_">
				<use xlink:href="#SVGID_3_"  overflow="visible"/>
			</clipPath>
			<g clip-path="url(#SVGID_4_)" enable-background="new    ">
				<path fill="#114727" d="M216.7,104.7l0,8.2c0-5.3-3.5-10.6-10.5-14.6c-1.6-0.9-3.4-1.8-5.2-2.5l0-8.2c1.8,0.7,3.6,1.6,5.2,2.5
					C213.2,94.1,216.7,99.4,216.7,104.7"/>
				<path fill="#124A29" d="M200.9,87.5l0,8.2c-1.4-0.6-2.8-1-4.3-1.5l0-8.2C198.1,86.5,199.6,87,200.9,87.5"/>
			</g>
		</g>
		<g enable-background="new    ">
			<defs>
				<path id="SVGID_5_" enable-background="new    " d="M212.8,103.5c-0.7-0.8-1.5-1.6-2.4-2.4c0-2.7,0-5.4,0-8.2
					c0.9,0.8,1.7,1.5,2.4,2.4C212.8,98.1,212.8,100.8,212.8,103.5z"/>
			</defs>
			<clipPath id="SVGID_6_">
				<use xlink:href="#SVGID_5_"  overflow="visible"/>
			</clipPath>
			<g clip-path="url(#SVGID_6_)" enable-background="new    ">
				<path fill="#114727" d="M216.7,104.7l0,8.2c0-5.3-3.5-10.6-10.5-14.6c-1.6-0.9-3.4-1.8-5.2-2.5l0-8.2c1.8,0.7,3.6,1.6,5.2,2.5
					C213.2,94.1,216.7,99.4,216.7,104.7"/>
			</g>
		</g>
		<g>
			<polygon fill="#1C7E44" points="349.5,80.9 349.5,89.1 324.1,103.8 324.2,95.7 			"/>
		</g>
		<g>
			<polygon fill="#13572F" points="324.2,95.7 324.1,103.8 289.6,83.9 289.7,75.8 			"/>
		</g>
		<g>
			<polygon fill="#1F8C4C" points="315,61 349.5,80.9 324.2,95.7 289.7,75.8 296.3,71.9 			"/>
		</g>
		<g enable-background="new    ">
			<defs>
				<path id="SVGID_7_" enable-background="new    " d="M212.8,103.5c0,0,0-0.1,0-0.1c0-0.3,0-0.7,0-1c0-0.4,0-0.7,0-1.1
					c0-2,0-3.9,0-5.9c0.3,0.3,0.5,0.6,0.8,0.9c0,2.7,0,5.4,0,8.2C213.4,104.1,213.1,103.8,212.8,103.5z"/>
			</defs>
			<clipPath id="SVGID_8_">
				<use xlink:href="#SVGID_7_"  overflow="visible"/>
			</clipPath>
			<g clip-path="url(#SVGID_8_)" enable-background="new    ">
				<path fill="#114727" d="M216.7,104.7l0,8.2c0-5.3-3.5-10.6-10.5-14.6c-1.6-0.9-3.4-1.8-5.2-2.5l0-8.2c1.8,0.7,3.6,1.6,5.2,2.5
					C213.2,94.1,216.7,99.4,216.7,104.7"/>
			</g>
		</g>
		<g>
			<polygon fill="#BFBFBF" points="82.5,88.5 82.5,96.6 63.5,107.7 63.5,99.5 			"/>
		</g>
		<g enable-background="new    ">
			<defs>
				<path id="SVGID_9_" enable-background="new    " d="M200.5,101.5c-9.8-5.7-25.3-6-35.8-1.5l0-8.2c10.5-4.5,26.1-4.1,35.8,1.5
					c5.4,3.1,8,7.2,8,11.3l0,8.2C208.5,108.7,205.9,104.6,200.5,101.5z"/>
			</defs>
			<clipPath id="SVGID_10_">
				<use xlink:href="#SVGID_9_"  overflow="visible"/>
			</clipPath>
			<g clip-path="url(#SVGID_10_)" enable-background="new    ">
				<path fill="#808080" d="M208.5,104.6l0,8.2c0-4.1-2.6-8.2-8-11.3c-1.2-0.7-2.5-1.3-3.9-1.9l0-8.2c1.4,0.5,2.7,1.2,3.9,1.9
					C205.9,96.4,208.5,100.5,208.5,104.6"/>
				<path fill="#858585" d="M196.6,91.5l0,8.2c-1.1-0.4-2.2-0.8-3.3-1.1l0-8.2C194.5,90.7,195.6,91,196.6,91.5"/>
				<path fill="#8A8A8A" d="M193.4,90.3l0,8.2c-0.9-0.3-1.9-0.5-2.9-0.7l0-8.2C191.4,89.8,192.4,90.1,193.4,90.3"/>
				<path fill="#8F8F8F" d="M190.5,89.6l0,8.2c-0.9-0.2-1.8-0.3-2.7-0.5l0-8.2C188.7,89.3,189.6,89.4,190.5,89.6"/>
				<path fill="#949494" d="M187.7,89.2l0,8.2c-0.9-0.1-1.8-0.2-2.7-0.3l0-8.2C185.9,88.9,186.8,89,187.7,89.2"/>
				<path fill="#999999" d="M185,88.9l0,8.2c-0.9-0.1-1.8-0.1-2.8-0.1l0-8.2C183.2,88.7,184.1,88.8,185,88.9"/>
				<path fill="#9E9E9E" d="M182.3,88.7l0,8.2c-1,0-1.9,0-2.9,0l0-8.2C180.3,88.7,181.3,88.7,182.3,88.7"/>
				<path fill="#A3A3A3" d="M179.4,88.7l0,8.2c-1,0-2.1,0.1-3.1,0.2l0-8.2C177.3,88.8,178.3,88.8,179.4,88.7"/>
				<path fill="#A8A8A8" d="M176.3,88.9l0,8.2c-1.2,0.1-2.4,0.3-3.6,0.5l0-8.2C173.8,89.2,175,89.1,176.3,88.9"/>
				<path fill="#ADADAD" d="M172.7,89.4l0,8.2c-1.8,0.3-3.5,0.7-5.1,1.3l0-8.2C169.2,90.2,170.9,89.8,172.7,89.4"/>
				<path fill="#B2B2B2" d="M167.5,90.7l0,8.2c-1,0.3-2,0.7-2.9,1.1l0-8.2C165.6,91.4,166.5,91,167.5,90.7"/>
			</g>
		</g>
		<g enable-background="new    ">
			<defs>
				<path id="SVGID_11_" enable-background="new    " d="M145.7,112.6l0-8.2c0-4.3,2.3-8.7,7-12.2l0,8.2
					C148,104,145.7,108.3,145.7,112.6z"/>
			</defs>
			<clipPath id="SVGID_12_">
				<use xlink:href="#SVGID_11_"  overflow="visible"/>
			</clipPath>
			<g clip-path="url(#SVGID_12_)" enable-background="new    ">
				<path fill="#19723E" d="M152.7,92.2l0,8.2c-0.6,0.4-1.1,0.9-1.6,1.3l0-8.2C151.6,93.1,152.1,92.7,152.7,92.2"/>
				<path fill="#186F3C" d="M151.1,93.6l0,8.2c-0.8,0.8-1.5,1.5-2.2,2.3l0-8.2C149.5,95.1,150.3,94.3,151.1,93.6"/>
				<path fill="#186C3A" d="M148.9,95.9l0,8.2c-0.5,0.7-1,1.4-1.4,2.1l0-8.2C147.9,97.3,148.4,96.6,148.9,95.9"/>
				<path fill="#176838" d="M147.5,98l0,8.2c-0.4,0.7-0.7,1.4-1,2l0-8.2C146.8,99.4,147.1,98.7,147.5,98"/>
				<path fill="#166537" d="M146.5,100.1l0,8.2c-0.3,0.7-0.4,1.3-0.6,2l0-8.2C146.1,101.4,146.3,100.7,146.5,100.1"/>
				<path fill="#166235" d="M145.9,102.1l0,8.2c-0.1,0.7-0.2,1.4-0.2,2.1l0-8.2C145.7,103.5,145.8,102.8,145.9,102.1"/>
				<path fill="#155F33" d="M145.7,104.2l0,8.2c0,0.1,0,0.2,0,0.3l0-8.2C145.7,104.4,145.7,104.3,145.7,104.2"/>
			</g>
		</g>
		<g enable-background="new    ">
			<defs>
				<path id="SVGID_13_" enable-background="new    " d="M216.7,112.8c0-2.9-1-5.7-3.1-8.4c0-2.7,0-5.4,0-8.2c2,2.7,3.1,5.5,3.1,8.4
					C216.7,107.1,216.7,110.4,216.7,112.8z"/>
			</defs>
			<clipPath id="SVGID_14_">
				<use xlink:href="#SVGID_13_"  overflow="visible"/>
			</clipPath>
			<g clip-path="url(#SVGID_14_)" enable-background="new    ">
				<path fill="#114727" d="M216.7,104.7l0,8.2c0-5.3-3.5-10.6-10.5-14.6c-1.6-0.9-3.4-1.8-5.2-2.5l0-8.2c1.8,0.7,3.6,1.6,5.2,2.5
					C213.2,94.1,216.7,99.4,216.7,104.7"/>
			</g>
		</g>
		<g enable-background="new    ">
			<defs>
				<path id="SVGID_15_" enable-background="new    " d="M153.5,112.7l0-8.2c0-3.1,1.6-6.2,4.8-9l0,8.2
					C155.2,106.4,153.6,109.5,153.5,112.7z"/>
			</defs>
			<clipPath id="SVGID_16_">
				<use xlink:href="#SVGID_15_"  overflow="visible"/>
			</clipPath>
			<g clip-path="url(#SVGID_16_)" enable-background="new    ">
				<path fill="#ADADAD" d="M158.4,95.5l0,8.2c-0.2,0.2-0.5,0.4-0.7,0.6l0-8.2C158,95.9,158.2,95.7,158.4,95.5"/>
				<path fill="#A8A8A8" d="M157.8,96.1l0,8.2c-0.7,0.6-1.2,1.2-1.7,1.9l0-8.2C156.5,97.4,157.1,96.7,157.8,96.1"/>
				<path fill="#A3A3A3" d="M156,98l0,8.2c-0.4,0.5-0.8,1.1-1.1,1.6l0-8.2C155.2,99.1,155.6,98.5,156,98"/>
				<path fill="#9E9E9E" d="M154.9,99.6l0,8.2c-0.3,0.5-0.5,1-0.7,1.5l0-8.2C154.4,100.7,154.6,100.1,154.9,99.6"/>
				<path fill="#999999" d="M154.2,101.2l0,8.2c-0.2,0.5-0.3,1-0.4,1.5l0-8.2C153.9,102.2,154,101.7,154.2,101.2"/>
				<path fill="#949494" d="M153.8,102.7l0,8.2c-0.1,0.5-0.2,1-0.2,1.6l0-8.2C153.6,103.7,153.7,103.2,153.8,102.7"/>
				<path fill="#8F8F8F" d="M153.6,104.3l0,8.2c0,0.1,0,0.2,0,0.2l0-8.2C153.6,104.4,153.6,104.3,153.6,104.3"/>
			</g>
		</g>
		<g>
			<polygon fill="#196A3A" points="324.2,95.7 324.1,103.8 298.8,118.6 298.8,110.4 			"/>
		</g>
		<g>
			<polygon fill="#1C7641" points="324.2,95.7 298.8,110.4 171.3,36.9 196.7,22.1 232.2,42.6 238.1,46 282.8,71.8 289.6,75.8 			"/>
		</g>
		<g>
			<polygon fill="#124928" points="298.8,110.4 298.8,118.6 171.3,45 171.3,36.9 			"/>
		</g>
		<g enable-background="new    ">
			<defs>
				<path id="SVGID_17_" enable-background="new    " d="M156.1,119.4c-1.7-2.1-2.6-4.4-2.6-6.7l0-8.2c0,2.3,0.9,4.6,2.6,6.7
					C156.1,113.9,156.1,116.7,156.1,119.4z"/>
			</defs>
			<clipPath id="SVGID_18_">
				<use xlink:href="#SVGID_17_"  overflow="visible"/>
			</clipPath>
			<g clip-path="url(#SVGID_18_)" enable-background="new    ">
				<path fill="#13552E" d="M161.7,115.8l0,8.2c-5.4-3.1-8.2-7.2-8.2-11.3l0-8.2C153.6,108.6,156.3,112.7,161.7,115.8"/>
			</g>
		</g>
		<g>
			<polygon fill="#124928" points="203.3,114.1 203.2,122.2 164.6,99.9 164.7,91.8 			"/>
		</g>
		<g>
			<polygon fill="#13572F" points="203.3,114.1 203.2,122.2 164.6,99.9 164.6,91.8 			"/>
		</g>
		<g enable-background="new    ">
			<defs>
				<path id="SVGID_19_" enable-background="new    " d="M208.5,112.8c0,3.3-1.8,6.7-5.3,9.4l0-8.2c3.5-2.8,5.3-6.1,5.3-9.4
					C208.5,107.1,208.5,110.3,208.5,112.8z"/>
			</defs>
			<clipPath id="SVGID_20_">
				<use xlink:href="#SVGID_19_"  overflow="visible"/>
			</clipPath>
			<g clip-path="url(#SVGID_20_)" enable-background="new    ">
				<path fill="#134F2C" d="M208.5,104.6l0,8.2c0,0.1,0,0.2,0,0.2l0-8.2C208.5,104.8,208.5,104.7,208.5,104.6"/>
				<path fill="#14522D" d="M208.5,104.9l0,8.2c0,0.5-0.1,1.1-0.2,1.6l0-8.2C208.4,106,208.5,105.4,208.5,104.9"/>
				<path fill="#14552F" d="M208.3,106.5l0,8.2c-0.1,0.5-0.3,1.1-0.5,1.6l0-8.2C208.1,107.6,208.2,107,208.3,106.5"/>
				<path fill="#155830" d="M207.9,108.1l0,8.2c-0.2,0.5-0.4,1.1-0.7,1.6l0-8.2C207.4,109.2,207.7,108.6,207.9,108.1"/>
				<path fill="#165A32" d="M207.1,109.7l0,8.2c-0.3,0.6-0.7,1.1-1.1,1.6l0-8.2C206.5,110.8,206.8,110.2,207.1,109.7"/>
				<path fill="#165D33" d="M206,111.3l0,8.2c-0.5,0.6-1,1.2-1.7,1.8l0-8.2C205,112.5,205.6,111.9,206,111.3"/>
				<path fill="#176035" d="M204.4,113.1l0,8.2c-0.3,0.3-0.7,0.6-1.1,1l0-8.2C203.6,113.8,204,113.4,204.4,113.1"/>
			</g>
		</g>
		<g>
			<path fill="#1C7641" d="M200.5,93.3c9.8,5.7,10.5,14.6,2.7,20.8l-38.6-22.3C175.2,87.3,190.7,87.7,200.5,93.3z"/>
		</g>
		<g>
			<polygon fill="#BFBFBF" points="63.5,99.5 63.5,107.7 38.1,122.4 38.1,114.3 			"/>
		</g>
		<g enable-background="new    ">
			<defs>
				<path id="SVGID_21_" enable-background="new    " d="M161.7,124c-2.4-1.4-4.3-2.9-5.6-4.6c0-2.7,0-5.4,0-8.2
					c1.3,1.7,3.2,3.2,5.6,4.6C161.7,118.3,161.7,121.5,161.7,124z"/>
			</defs>
			<clipPath id="SVGID_22_">
				<use xlink:href="#SVGID_21_"  overflow="visible"/>
			</clipPath>
			<g clip-path="url(#SVGID_22_)" enable-background="new    ">
				<path fill="#13552E" d="M161.7,115.8l0,8.2c-5.4-3.1-8.2-7.2-8.2-11.3l0-8.2C153.6,108.6,156.3,112.7,161.7,115.8"/>
			</g>
		</g>
		<g enable-background="new    ">
			<defs>
				<path id="SVGID_23_" enable-background="new    " d="M216.7,104.7l0,8.2c0,4.5-2.6,9-7.7,12.7l0-8.2
					C214.1,113.6,216.7,109.1,216.7,104.7z"/>
			</defs>
			<clipPath id="SVGID_24_">
				<use xlink:href="#SVGID_23_"  overflow="visible"/>
			</clipPath>
			<g clip-path="url(#SVGID_24_)" enable-background="new    ">
				<path fill="#8F8F8F" d="M216.7,104.7l0,8.2c0,0.1,0,0.2,0,0.3l0-8.2C216.7,104.9,216.7,104.8,216.7,104.7"/>
				<path fill="#949494" d="M216.7,105l0,8.2c0,0.7-0.1,1.3-0.2,2l0-8.2C216.6,106.3,216.7,105.6,216.7,105"/>
				<path fill="#999999" d="M216.5,107l0,8.2c-0.1,0.7-0.3,1.3-0.6,2l0-8.2C216.1,108.3,216.3,107.6,216.5,107"/>
				<path fill="#9E9E9E" d="M215.9,109l0,8.2c-0.3,0.7-0.6,1.3-0.9,2l0-8.2C215.3,110.3,215.6,109.6,215.9,109"/>
				<path fill="#A3A3A3" d="M214.9,111l0,8.2c-0.4,0.7-0.9,1.4-1.4,2.1l0-8.2C214.1,112.4,214.5,111.7,214.9,111"/>
				<path fill="#A8A8A8" d="M213.5,113.1l0,8.2c-0.6,0.8-1.4,1.6-2.2,2.4l0-8.2C212.1,114.7,212.9,113.9,213.5,113.1"/>
				<path fill="#ADADAD" d="M211.3,115.5l0,8.2c-0.7,0.7-1.5,1.3-2.3,1.9l0-8.2C209.8,116.8,210.6,116.1,211.3,115.5"/>
			</g>
		</g>
		<g>
			<polygon fill="#858585" points="196.8,117.7 196.8,125.8 158.4,103.7 158.4,95.5 			"/>
		</g>
		<g>
			<path fill="#1F8C4C" d="M161.7,115.8c-9.5-5.5-10.8-14-3.3-20.3l38.4,22.1C185.9,122.1,171.3,121.3,161.7,115.8z"/>
		</g>
		<g enable-background="new    ">
			<defs>
				<path id="SVGID_25_" enable-background="new    " d="M196.8,117.7l0,8.2c-10.8,4.4-25.5,3.7-35-1.9l0-8.2
					C171.3,121.3,185.9,122.1,196.8,117.7z"/>
			</defs>
			<clipPath id="SVGID_26_">
				<use xlink:href="#SVGID_25_"  overflow="visible"/>
			</clipPath>
			<g clip-path="url(#SVGID_26_)" enable-background="new    ">
				<path fill="#1A753F" d="M196.8,117.7l0,8.2c-0.7,0.3-1.5,0.6-2.3,0.8l0-8.2C195.3,118.3,196,118,196.8,117.7"/>
				<path fill="#19723E" d="M194.5,118.5l0,8.2c-1.7,0.5-3.4,1-5.2,1.3l0-8.2C191.1,119.5,192.8,119.1,194.5,118.5"/>
				<path fill="#186F3C" d="M189.3,119.8l0,8.2c-1.2,0.2-2.3,0.4-3.5,0.5l0-8.2C187,120.2,188.2,120,189.3,119.8"/>
				<path fill="#186C3A" d="M185.8,120.3l0,8.2c-1,0.1-2,0.2-3,0.2l0-8.2C183.8,120.5,184.8,120.4,185.8,120.3"/>
				<path fill="#176838" d="M182.8,120.5l0,8.2c-0.9,0-1.9,0-2.8,0l0-8.2C180.9,120.5,181.9,120.5,182.8,120.5"/>
				<path fill="#166537" d="M180,120.5l0,8.2c-0.9,0-1.8-0.1-2.7-0.1l0-8.2C178.2,120.4,179.1,120.5,180,120.5"/>
				<path fill="#166235" d="M177.4,120.4l0,8.2c-0.9-0.1-1.8-0.2-2.6-0.3l0-8.2C175.6,120.2,176.5,120.3,177.4,120.4"/>
				<path fill="#155F33" d="M174.7,120.1l0,8.2c-0.9-0.1-1.8-0.3-2.7-0.5l0-8.2C172.9,119.8,173.8,119.9,174.7,120.1"/>
				<path fill="#145B31" d="M172,119.6l0,8.2c-1-0.2-1.9-0.4-2.9-0.7l0-8.2C170.1,119.2,171,119.4,172,119.6"/>
				<path fill="#135830" d="M169.1,118.9l0,8.2c-1.1-0.3-2.3-0.7-3.3-1.1l0-8.2C166.8,118.2,168,118.6,169.1,118.9"/>
				<path fill="#13552E" d="M165.8,117.8l0,8.2c-1.4-0.6-2.8-1.2-4-1.9l0-8.2C163,116.6,164.3,117.2,165.8,117.8"/>
			</g>
		</g>
		<g>
			<polygon fill="#1C7E44" points="298.8,110.4 298.8,118.6 273.4,133.3 273.4,125.2 			"/>
		</g>
		<g>
			<polygon fill="#1F8C4C" points="146,51.6 171.3,36.9 298.8,110.4 273.4,125.2 			"/>
		</g>
		<g>
			<polygon fill="#124928" points="248,139.9 248,148.1 208.9,125.5 209,117.4 			"/>
		</g>
		<g>
			<polygon fill="#13572F" points="248,139.9 248,148.1 208.9,125.5 209,117.4 			"/>
		</g>
		<g>
			<polygon fill="#858585" points="241.9,143.8 241.9,151.9 202.5,129.2 202.5,121 			"/>
		</g>
		<g enable-background="new    ">
			<defs>
				<path id="SVGID_27_" enable-background="new    " d="M145.7,112.6l0-8.2c0,5.3,3.4,10.6,10.4,14.6c12.7,7.3,32.7,7.9,46.4,1.9
					l0,8.2c-13.7,6-33.7,5.4-46.4-1.9C149.1,123.2,145.7,117.9,145.7,112.6z"/>
			</defs>
			<clipPath id="SVGID_28_">
				<use xlink:href="#SVGID_27_"  overflow="visible"/>
			</clipPath>
			<g clip-path="url(#SVGID_28_)" enable-background="new    ">
				<path fill="#B2B2B2" d="M202.5,121l0,8.2c-1.3,0.6-2.6,1.1-4,1.5l0-8.2C199.9,122.1,201.3,121.6,202.5,121"/>
				<path fill="#ADADAD" d="M198.6,122.5l0,8.2c-2.1,0.7-4.3,1.2-6.6,1.6l0-8.2C194.2,123.7,196.4,123.2,198.6,122.5"/>
				<path fill="#A8A8A8" d="M191.9,124.1l0,8.2c-1.5,0.3-3,0.5-4.6,0.6l0-8.2C188.9,124.6,190.4,124.4,191.9,124.1"/>
				<path fill="#A3A3A3" d="M187.3,124.8l0,8.2c-1.3,0.1-2.7,0.2-4,0.3l0-8.2C184.7,125,186,124.9,187.3,124.8"/>
				<path fill="#9E9E9E" d="M183.3,125l0,8.2c-1.2,0-2.5,0-3.7,0l0-8.2C180.9,125.1,182.1,125.1,183.3,125"/>
				<path fill="#999999" d="M179.7,125.1l0,8.2c-1.2,0-2.4-0.1-3.5-0.2l0-8.2C177.3,125,178.5,125,179.7,125.1"/>
				<path fill="#949494" d="M176.1,124.9l0,8.2c-1.2-0.1-2.3-0.2-3.5-0.4l0-8.2C173.8,124.6,174.9,124.8,176.1,124.9"/>
				<path fill="#8F8F8F" d="M172.6,124.5l0,8.2c-1.2-0.2-2.4-0.4-3.5-0.6l0-8.2C170.3,124.1,171.4,124.3,172.6,124.5"/>
				<path fill="#8A8A8A" d="M169.1,123.9l0,8.2c-1.3-0.3-2.5-0.6-3.7-0.9l0-8.2C166.6,123.3,167.9,123.6,169.1,123.9"/>
				<path fill="#858585" d="M165.4,123l0,8.2c-1.5-0.4-2.9-0.9-4.3-1.4l0-8.2C162.5,122.1,163.9,122.5,165.4,123"/>
				<path fill="#808080" d="M161.1,121.5l0,8.2c-1.8-0.7-3.5-1.5-5-2.4c-7-4-10.4-9.3-10.4-14.6l0-8.2c0,5.3,3.4,10.6,10.4,14.6
					C157.7,120,159.4,120.8,161.1,121.5"/>
			</g>
		</g>
		<g>
			<polygon fill="#BFBFBF" points="38.1,114.3 38.1,122.4 12.7,137.2 12.8,129 			"/>
		</g>
		<g>
			<polygon fill="#13572F" points="165.6,187.8 165.6,196 38.1,122.4 38.1,114.3 			"/>
		</g>
		<g>
			<polygon fill="#124928" points="79.5,138.2 79.5,146.3 73.6,142.9 73.6,134.8 			"/>
		</g>
		<g>
			<polygon fill="#196A3A" points="73.6,134.8 73.6,142.9 67.6,146.4 67.6,138.2 			"/>
		</g>
		<g>
			<path fill="#1C7641" d="M146,51.6l127.4,73.6L248,139.9L209,117.4c11.3-8.2,10.1-19.9-2.8-27.3c-12.9-7.5-33.1-8.1-47.2-1.6
				l-38.3-22.1L146,51.6z"/>
		</g>
		<g>
			<polygon fill="#196A3A" points="273.4,125.2 273.4,133.3 248,148.1 248,139.9 			"/>
		</g>
		<g>
			<polygon fill="#124928" points="48.2,149.5 48.2,157.6 12.7,137.2 12.8,129 			"/>
		</g>
		<g>
			<polygon fill="#13572F" points="48.2,149.5 48.2,157.6 12.7,137.2 12.8,129 			"/>
		</g>
		<g>
			<polygon fill="#196A3A" points="67.6,138.2 67.6,146.4 48.2,157.6 48.2,149.5 			"/>
		</g>
		<g>
			<polygon fill="#858585" points="41.4,152.9 41.4,161 0,137.2 0,129 			"/>
		</g>
		<g>
			<polygon fill="#BFBFBF" points="73.6,142.1 73.6,150.3 54.6,161.3 54.6,153.2 			"/>
		</g>
		<g>
			<polygon fill="#858585" points="47.8,156.6 47.7,164.7 41.4,161 41.4,152.9 			"/>
		</g>
		<g>
			<path fill="#1F8C4C" d="M156.1,119.1c12.7,7.3,32.7,7.9,46.4,1.9l39.2,22.6l-25.4,14.7L88.9,84.8l6.3-3.7l19-11.1l38.4,22.2
				C142.4,100.2,143.4,111.8,156.1,119.1z"/>
		</g>
		<g>
			<polygon fill="#1C7E44" points="241.7,143.6 241.7,151.8 216.3,166.5 216.3,158.4 			"/>
		</g>
		<g>
			<polygon fill="#13572F" points="216.3,158.4 216.3,166.5 88.9,92.9 88.9,84.8 			"/>
		</g>
		<g>
			<polygon fill="#BFBFBF" points="362.5,81.1 362.5,89.2 229.3,166.7 229.3,158.5 			"/>
		</g>
		<g>
			<polygon fill="#124928" points="124.2,164 124.2,172.1 79.5,146.3 79.5,138.2 			"/>
		</g>
		<g>
			<polygon fill="#124928" points="131.1,167.9 131,176.1 124.2,172.1 124.2,164 			"/>
		</g>
		<g>
			<polygon fill="#858585" points="118.3,167.9 118.3,176.1 73.6,150.3 73.6,142.1 			"/>
		</g>
		<g>
			<polygon fill="#196A3A" points="216.3,158.4 216.3,166.5 190.9,181.2 190.9,173.1 			"/>
		</g>
		<g>
			<polygon fill="#BFBFBF" points="229.3,158.5 229.3,166.7 210.2,177.7 210.3,169.6 			"/>
		</g>
		<g>
			<polygon fill="#BFBFBF" points="131.1,167.9 131,176.1 125.1,179.6 125.1,171.4 			"/>
		</g>
		<g>
			<polygon fill="#1C7641" points="216.3,158.4 190.9,173.1 63.5,99.5 82.5,88.5 88.9,84.8 			"/>
		</g>
		<g>
			<polygon fill="#124928" points="190.9,173.1 190.9,181.2 63.5,107.7 63.5,99.5 			"/>
		</g>
		<g>
			<polygon fill="#124928" points="99.3,179 99.3,187.1 54.6,161.3 54.6,153.2 			"/>
		</g>
		<g>
			<polygon fill="#13572F" points="99.3,179 99.3,187.1 54.6,161.3 54.6,153.2 			"/>
		</g>
		<g>
			<polygon fill="#1C7641" points="54.6,153.2 73.6,142.1 118.3,167.9 99.3,179 			"/>
		</g>
		<g>
			<polygon fill="#196A3A" points="118.3,167.9 118.3,176.1 99.3,187.1 99.3,179 			"/>
		</g>
		<g>
			<polygon fill="#858585" points="92.5,182.4 92.4,190.5 47.7,164.7 47.8,156.6 			"/>
		</g>
		<g>
			<polygon fill="#BFBFBF" points="125.1,171.4 125.1,179.6 105.7,190.8 105.7,182.7 			"/>
		</g>
		<g>
			<polygon fill="#858585" points="98.8,186.1 98.8,194.2 92.4,190.5 92.5,182.4 			"/>
		</g>
		<g>
			<polygon fill="#1F8C4C" points="38.1,114.3 63.5,99.5 190.9,173.1 165.6,187.8 			"/>
		</g>
		<g>
			<polygon fill="#1C7E44" points="190.9,173.1 190.9,181.2 165.6,196 165.6,187.8 			"/>
		</g>
		<g>
			<polygon fill="#124928" points="140.2,202.6 140.2,210.7 105.7,190.8 105.7,182.7 			"/>
		</g>
		<g>
			<polygon fill="#13572F" points="140.2,202.6 140.2,210.7 105.7,190.8 105.7,182.7 			"/>
		</g>
		<g>
			<polygon fill="#196A3A" points="165.6,187.8 165.6,196 140.2,210.7 140.2,202.6 			"/>
		</g>
		<g>
			<polygon fill="#1C7641" points="38.1,114.3 165.6,187.8 140.2,202.6 105.7,182.7 125.1,171.4 131.1,167.9 124.2,164 79.5,138.2 
				73.6,134.8 67.6,138.2 48.2,149.5 12.8,129 			"/>
		</g>
		<g>
			<polygon fill="#858585" points="140.5,210.1 140.5,218.3 98.8,194.2 98.8,186.1 			"/>
		</g>
		<g>
			<polygon fill="#BFBFBF" points="210.3,169.6 210.2,177.7 140.5,218.3 140.5,210.1 			"/>
		</g>
		<g>
			<path fill="#D5D5D5" d="M320.9,57.1l41.6,24l-133.2,77.4l-19,11.1l-69.8,40.6l-41.6-24l-6.4-3.7l-44.7-25.8l-6.4-3.7L0,129
				l82.5-47.9l6.3-3.7L222,0l41.4,23.9l6.4,3.7l44.7,25.8L320.9,57.1z M248,139.9l101.7-58.8L315,61l-18.7,10.8l-6.7,3.9l-6.9-4
				L238.1,46l-5.9-3.4l6.7-3.9l18.7-10.8L222.1,7.4l-25.4,14.7l-25.4,14.7L146,51.6l-25.4,14.7l38.3,22.1
				c14.1-6.6,34.3-5.9,47.2,1.5c12.9,7.5,14.1,19.1,2.8,27.3L248,139.9 M222.9,154.8l19-11.1L202.5,121c-13.7,6-33.7,5.4-46.4-1.9
				c-12.7-7.3-13.7-18.9-3.4-26.9L114.2,70l-19,11.1l-6.3,3.7l-6.3,3.7l-19,11.1l-25.4,14.7L12.8,129l35.5,20.5l19.4-11.3l6-3.5
				l5.9,3.4l44.7,25.8l6.9,4l-6,3.5l-19.4,11.3l34.5,19.9l63.7-36.7L222.9,154.8 M263.9,31.5l-19,11.1l44.7,25.8l19-11.1L263.9,31.5
				 M99.3,179l19-11.1l-44.7-25.8l-19,11.1L99.3,179 M164.7,91.8l38.6,22.3c7.8-6.1,7.1-15.1-2.7-20.8S175.2,87.3,164.7,91.8
				 M196.8,117.7l-38.4-22.1c-7.5,6.3-6.2,14.8,3.3,20.3S185.9,122.1,196.8,117.7"/>
		</g>
	</g>
</g>
</svg>
