<svg version="1.1" ixmlns="http://www.w3.org/2000/svg"  x="0px" y="0px"
	 viewBox="-429 231 100 100" style="enable-background:new -429 231 100 100;" >
<path d="M-379,231c-27.6,0-50,22.4-50,50s22.4,50,50,50c27.5,0,50-22.4,50-50S-351.5,231-379,231z M-346,254
	c6,7.3,9.5,16.5,9.7,26.6c-1.4-0.3-15.5-3.1-29.7-1.4c-0.3-0.7-0.6-1.5-0.9-2.2c-0.9-2.1-1.8-4.2-2.8-6.2
	C-354.1,264.5-346.9,255.2-346,254z M-379,238.4c10.8,0,20.8,4.1,28.3,10.7c-0.8,1.1-7.2,9.7-22.4,15.4c-7-12.9-14.8-23.4-15.9-25
	C-385.8,238.8-382.5,238.4-379,238.4z M-397.2,242.4c1.1,1.5,8.7,12.1,15.8,24.7c-20,5.3-37.6,5.2-39.5,5.2
	C-418,259-409.1,248-397.2,242.4z M-421.7,281.1c0-0.4,0-0.9,0-1.3c1.8,0.1,22.6,0.3,43.9-6.1c1.2,2.4,2.4,4.8,3.5,7.3
	c-0.5,0.2-1.1,0.3-1.7,0.5c-22,7.1-33.7,26.5-34.7,28.1C-417.6,302-421.7,292-421.7,281.1z M-379,323.7c-9.9,0-19-3.4-26.2-9
	c0.8-1.6,9.4-18.3,33.5-26.7c0.1-0.1,0.2-0.1,0.3-0.1c6,15.6,8.5,28.6,9.1,32.4C-367.4,322.5-373.1,323.7-379,323.7z M-355.2,316.4
	c-0.4-2.6-2.7-15.1-8.3-30.4c13.4-2.1,25.1,1.4,26.6,1.8C-338.8,299.7-345.6,310-355.2,316.4z"/>
</svg>
