<?xml version="1.0" encoding="utf-8"?>
<!-- Generator: Adobe Illustrator 19.1.0, SVG Export Plug-In . SVG Version: 6.00 Build 0)  -->
<svg version="1.1" id="Layer_1" xmlns="http://www.w3.org/2000/svg" xmlns:xlink="http://www.w3.org/1999/xlink" x="0px" y="0px"
	 viewBox="0 0 42.5 42.5" style="enable-background:new 0 0 42.5 42.5;" xml:space="preserve">
<g>
	<path d="M27.5,42.5h-17C4.7,42.5,0,37.8,0,32V15C0,9.2,4.7,4.5,10.5,4.5h7C18.9,4.5,20,5.6,20,7s-1.1,2.5-2.5,2.5h-7
		C7.5,9.5,5,12,5,15v17c0,3,2.5,5.5,5.5,5.5h17c3,0,5.5-2.5,5.5-5.5v-7c0-1.4,1.1-2.5,2.5-2.5S38,23.6,38,25v7
		C38,37.8,33.3,42.5,27.5,42.5z"/>
</g>
<g>
	<path d="M42.5,15.7V3c0-1.4-1.3-3-2.7-3H27.1c-1.4,0-2.5,1.1-2.5,2.5c0,1.4,1.1,2.5,2.5,2.5h6.3L18.8,19.9
		c-1,1-1,2.7,0,3.6c1,1,2.7,1,3.6,0.1L37.5,8.6v7c0,0.7,0.2,1.3,0.6,1.8c0.5,0.5,1.1,0.7,1.8,0.7C41.3,18.2,42.5,17.1,42.5,15.7z"/>
</g>
</svg>
