<?xml version="1.0" encoding="utf-8"?>
<!-- Generator: Adobe Illustrator 19.1.0, SVG Export Plug-In . SVG Version: 6.00 Build 0)  -->
<svg version="1.1" id="Layer_1" focusable="false" xmlns="http://www.w3.org/2000/svg" xmlns:xlink="http://www.w3.org/1999/xlink"
	 x="0px" y="0px" viewBox="-265 467 28 28" style="enable-background:new -265 467 28 28;" xml:space="preserve">
<path d="M-251,467c-7.7,0-14,6.3-14,14s6.3,14,14,14s14-6.3,14-14S-243.3,467-251,467z M-258.8,488.8c-2.1-2.1-3.2-4.9-3.2-7.6
	l10.9,10.8C-253.9,491.9-256.7,490.9-258.8,488.8z M-248.6,491.7l-13.1-13.1c1.1-4.9,5.5-8.6,10.7-8.6c3.7,0,6.9,1.8,8.9,4.5
	l-1.5,1.3c-1.7-2.3-4.4-3.8-7.4-3.8c-3.9,0-7.2,2.5-8.5,6l11.5,11.5c2.9-1,5.1-3.5,5.8-6.5h-4.8v-2h7
	C-240,486.2-243.7,490.6-248.6,491.7z"/>
</svg>
