<?xml version="1.0" encoding="utf-8"?>
<!-- Generator: Adobe Illustrator 19.1.0, SVG Export Plug-In . SVG Version: 6.00 Build 0)  -->
<svg version="1.1" xmlns="http://www.w3.org/2000/svg" xmlns:xlink="http://www.w3.org/1999/xlink" x="0px" y="0px"
	 viewBox="-468.8 342 84.1 85.1" style="enable-background:new -468.8 342 84.1 85.1;" xml:space="preserve">

<g>
	<path d="M-464.8,410h25.6c2.2,0,4,1.8,4,4v9c0,2.2-1.8,4-4,4h-25.6c-2.2,0-4-1.8-4-4v-9
		C-468.8,411.8-467,410-464.8,410z"/>
	<path d="M-414.3,410h25.6c2.2,0,4,1.8,4,4v9c0,2.2-1.8,4-4,4h-25.6c-2.2,0-4-1.8-4-4v-9
		C-418.3,411.8-416.5,410-414.3,410z"/>
	<path d="M-464.8,376h76.1c2.2,0,4,1.8,4,4v9c0,2.2-1.8,4-4,4h-76.1c-2.2,0-4-1.8-4-4v-9
		C-468.8,377.8-467,376-464.8,376z"/>
	<path d="M-464.8,342h42.5c2.2,0,4,1.8,4,4v9c0,2.2-1.8,4-4,4h-42.5c-2.2,0-4-1.8-4-4v-9
		C-468.8,343.8-467,342-464.8,342z"/>
	<path d="M-397.5,342h8.8c2.2,0,4,1.8,4,4v9c0,2.2-1.8,4-4,4h-8.8c-2.2,0-4-1.8-4-4v-9
		C-401.5,343.8-399.7,342-397.5,342z"/>
</g>
</svg>
