<svg version="1.1" id="Layer_1" xmlns="http://www.w3.org/2000/svg" xmlns:xlink="http://www.w3.org/1999/xlink" x="0px" y="0px"
	 viewBox="0 0 171.9 174" style="enable-background:new 0 0 171.9 174;" xml:space="preserve">

<path d="M154.6,0H17.3C7.8,0-0.2,7.8-0.2,17.4v139.2c0,9.6,8,17.4,17.6,17.4h137.3c9.6,0,17.2-7.8,17.2-17.4V17.4
	C171.8,7.8,164.2,0,154.6,0z M54.8,138h-23V63h23V138z M43.5,54.1c-7.3,0-12-5.2-12-11.6C31.4,36,36.3,31,43.8,31
	c7.5,0,12,5,12.2,11.6C55.9,48.9,51.2,54.1,43.5,54.1z M139.8,138h-23V96.4c0-9.6-3.5-16.1-11.9-16.1c-6.4,0-10.4,4.4-12.1,8.7
	c-0.6,1.5-1,3.7-1,5.8V138h-23V87c0-9.3-0.1-17-0.4-24h20.1l1.1,11H90c3-5,10.6-12.2,23.1-12.2c15.2,0,26.7,10,26.7,31.9V138z"/>
</svg>
