<?xml version="1.0" encoding="utf-8"?>
<!-- Generator: Adobe Illustrator 19.1.0, SVG Export Plug-In . SVG Version: 6.00 Build 0)  -->
<svg version="1.1" id="Layer_2" xmlns="http://www.w3.org/2000/svg" xmlns:xlink="http://www.w3.org/1999/xlink" x="0px" y="0px"
	 viewBox="0 0 310.4 306" enable-background="new 0 0 310.4 306" xml:space="preserve">
<g>
	<rect x="141.2" y="221" fill="#2D3748" width="28" height="85"/>
	
		<rect x="213.8" y="194.3" transform="matrix(-0.7645 0.6447 -0.6447 -0.7645 554.6603 270.6809)" fill="#2D3748" width="28.2" height="84.6"/>
	
		<rect x="252.1" y="128.3" transform="matrix(-0.1786 0.9839 -0.9839 -0.1786 481.6465 -60.8049)" fill="#2D3748" width="28.2" height="84.6"/>
	
		<rect x="238.5" y="51.1" transform="matrix(0.5054 0.8629 -0.8629 0.5054 205.5284 -171.7766)" fill="#2D3748" width="28.2" height="84.6"/>
	
		<rect x="180.4" y="2.3" transform="matrix(0.9371 0.349 -0.349 0.9371 27.7865 -65.0899)" fill="#2D3748" width="28.2" height="84.6"/>
	
		<rect x="101.7" y="2.3" transform="matrix(0.9371 -0.349 0.349 0.9371 -8.2762 43.214)" fill="#2D3748" width="28.2" height="84.6"/>
	
		<rect x="43.6" y="51.1" transform="matrix(0.5054 -0.8629 0.8629 0.5054 -52.0402 96.0186)" fill="#2D3748" width="28.2" height="84.6"/>
	
		<rect x="30" y="128.3" transform="matrix(-0.1786 -0.9839 0.9839 -0.1786 -115.8612 244.5648)" fill="#2D3748" width="28.2" height="84.6"/>
	
		<rect x="68.4" y="194.3" transform="matrix(-0.7645 -0.6447 0.6447 -0.7645 -7.0413 470.7569)" fill="#2D3748" width="28.2" height="84.6"/>
	<rect x="141.2" y="221" fill="#2D3748" width="28" height="85"/>
</g>
</svg>
