<?xml version="1.0" encoding="utf-8"?>
<!-- Generator: Adobe Illustrator 19.1.0, SVG Export Plug-In . SVG Version: 6.00 Build 0)  -->
<svg version="1.1" xmlns="http://www.w3.org/2000/svg" xmlns:xlink="http://www.w3.org/1999/xlink" x="0px" y="0px"
	 viewBox="-320.1 247 379.6 395.6" style="enable-background:new -320.1 247 379.6 395.6;" xml:space="preserve">
<g>
</g>
<g id="svg2458" xmlns:cc="http://creativecommons.org/ns#" xmlns:dc="http://purl.org/dc/elements/1.1/" xmlns:svg="http://www.w3.org/2000/svg" xmlns:rdf="http://www.w3.org/1999/02/22-rdf-syntax-ns#" xmlns:sodipodi="http://sodipodi.sourceforge.net/DTD/sodipodi-0.dtd" xmlns:inkscape="http://www.inkscape.org/namespaces/inkscape" inkscape:version="0.46" sodipodi:docname="Postgresql_elephant.bleu_royal.svg" sodipodi:version="0.32" inkscape:output_extension="org.inkscape.output.svg.inkscape">
	<g>
		<path d="M-220.8,422.4c3-21.8,1.9-41,1.3-51.3c-0.2-2.8-0.3-4.9-0.3-6.3c-0.1-3.8-0.9-65.1,34.6-101.1
			c0.1-0.1,0.1-0.1,0.2-0.2c-22.3-7.2-75.1-20.5-107.4,2.3c-20.1,14.2-29.4,40.8-27.5,79c0.6,12.1,8.2,55.1,21.3,98
			c7.9,26,16.5,47,24.9,61.8c7.5,12.9,14.9,20.9,21.8,23.2c2.3,0.8,9.2,3.1,19.1-8.9c14.1-17,27.3-31.4,33.4-37.9
			c-1.5-1.3-3-2.7-4.4-4.2C-217.4,462.4-223.6,442.6-220.8,422.4z"/>
		<path d="M-2.8,368.6c0.9-5.8,1.7-11.4,1.9-17.6c-14.7-1.8-31.6-1.4-38.3,8.1c-13,18.5,12.4,64,23.2,83.4
			c2.8,5,4.8,8.6,5.7,10.8c1,2.5,2.1,4.7,3.3,6.8c7.4-15.8,5.5-31.9,3.6-47.5c-0.9-7.7-1.9-15.7-1.6-23.4
			C-4.8,381.4-3.8,374.9-2.8,368.6z M-15.2,365c-1.2,1.3-3.7,3.4-7.2,3.9c-0.4,0.1-0.9,0.1-1.3,0.1c-5.2,0-9.5-4.1-9.9-6.5
			c-0.4-3.1,4.6-5.5,9.9-6.2c5.2-0.7,10.7,0.2,11.2,3.3l0,0C-12.3,360.9-13.4,363.1-15.2,365z"/>
		<path d="M-18.7,286.2c19.9,23.1,29.6,48.7,30.4,57.2c0.1,1.3,0,2.4-0.2,3.3c0.3,8.9-0.8,16.4-1.9,23.7
			c-0.9,5.9-1.9,12-2.1,19.2c-0.2,6.7,0.6,13.9,1.6,21.5c2.2,18.5,4.7,39.4-8,60.4c0.2,0.3,0.4,0.5,0.6,0.8c0.5,0.6,1,1.3,1.5,1.9
			c47.7-75,65.2-161.5,52.5-185.3c-0.4-0.6-0.8-1.2-1.2-1.8c-20.2-25.8-48.7-39.3-84.8-40.1c-13.9-0.3-26.4,1.4-35.6,3.3
			C-44.9,259.9-29.4,273.8-18.7,286.2z"/>
		<path d="M-142.9,498.2c-2.9-1.2-4.7-1.9-7.7,0.7c-0.3,0.8-0.7,1.6-1.3,2.3c-2.7,3.1-4.7,5.6-6.5,7.8
			c-7.6,9.7-11.1,12.9-33.7,17.6c-4.3,0.9-6.9,1.8-8.5,2.5c1.8,1.1,4.6,2.4,7.6,3.1c16.6,4.2,39.8,4.4,55.7-17.8
			c1.9-2.6,1.3-6,0.8-7.8C-137.5,502.8-140.2,499.4-142.9,498.2z"/>
		<path d="M-157,464.6l0.9-2.5c1.2-3.2,2.6-6.3,4.1-9.6c7.2-15.9,16.1-35.7,5.8-83.3c-2-9.2-6.8-14.5-14.6-16.3
			c-17.2-3.9-41.3,9-46.5,13.6c0,1,0.1,2.4,0.2,3.9c0.6,10.8,1.8,30.8-1.4,53.8c-2.3,16.4,2.7,32.4,13.8,44
			c8.7,9.1,20.1,14.1,31.8,14.1C-161.5,476.7-159.4,470.8-157,464.6z M-173.2,368.5c-0.8-1.1-2.1-3.1-1.9-5c0.1-0.7,0.5-1.7,1.6-2.6
			c2.1-1.6,6.2-2.2,10.7-1.5c5.6,0.8,11.3,3.4,10.7,7.4c-0.4,3.2-5.4,7.4-10.9,7.4c-0.5,0-0.9,0-1.4-0.1
			C-167.6,373.6-170.9,371.6-173.2,368.5z"/>
		<path d="M4.2,497.3c-0.9-0.6-1.7-1.2-2.4-1.8c-0.8,0.3-1.6,0.5-2.4,0.7c-5.8,1.6-11.2,3.1-10.5,17.8
			c1.5,1.2,8,3.2,20.6,2.7c11.5-0.5,23.5-3,30.7-6.4c7.6-3.5,13.2-7.5,16.8-10.6C32.1,504.7,14.3,503.9,4.2,497.3z"/>
		<path d="M-8.2,480.2c-4-5-9.5-11.8-13.7-22.1c-0.6-1.6-2.7-5.3-5.1-9.5c-13-23.3-40-71.7-22.5-96.6
			c8-11.5,23.8-16.1,47.1-13.7c-3.1-9.2-10.8-26.2-25.2-43.1c-13.9-16.5-36.9-35.7-71-41.9c-6.5-0.8-13.5-1.3-20.6-1.4
			c-19.5-0.3-36,4.6-49.3,14.6c-0.8,0.6-1.6,1-2.5,1.1c-1.8,1.5-3.6,3.1-5.3,4.9c-22.8,23-28.9,59.3-30.5,78.8
			c1.1-0.6,2.2-1.2,3.4-1.8c5.8-2.9,17.4-8,30-9.4c21.1-2.2,35.1,7.2,39.2,26.5c11.1,51.5,0.9,74.4-6.6,91c-1.4,3.1-2.7,6-3.7,8.8
			l-0.9,2.5c-2.2,5.9-4.3,11.4-5.4,16.3c5.5-1.4,10.1,0.5,12.6,1.5c6.3,2.6,11.6,8.9,13.7,16.4c0.4,1.2,0.6,2.5,0.8,3.7
			c0.2,0.6,0.3,1.3,0.3,2c-0.1,5.3-0.3,10.5-0.3,15.7c5.4,13.1,6.1,36.7,5.8,46.5c-0.6,20.1-1,34.6,2.8,44.9c0.5,1.2,0.9,2.6,1.4,4
			c4.2,12.7,8.9,27.2,35.5,21.5c27.1-5.8,40.6-20.1,42.5-44.9c0.8-10,2-14.6,3.2-18.6c1.1-3.9,1.9-6.9,2-15.3c0-0.6,0.1-1.3,0.3-1.9
			l2.6-7.7c0.5-3.9,0.8-7.4,1.1-10.5c0.5-5.4,0.9-9.8,1.7-13.5c0.7-6.5,1.2-11.6,1.5-14.3c-1.2-23.5,11.5-28.2,18.5-30.2
			C-5.8,483.2-7,481.7-8.2,480.2z"/>
	</g>
</g>
</svg>
