<?xml version="1.0" encoding="utf-8"?>
<!-- Generator: Adobe Illustrator 19.1.0, SVG Export Plug-In . SVG Version: 6.00 Build 0)  -->
<svg version="1.1" id="Layer_1" xmlns="http://www.w3.org/2000/svg" xmlns:xlink="http://www.w3.org/1999/xlink" x="0px" y="0px"
	 viewBox="-479 353 64 64" style="enable-background:new -479 353 64 64;" xml:space="preserve">

<path d="M-419.9,402.3l-25.9,14.7v-11.4l16.2-8.9L-419.9,402.3z M-418.1,400.7V370l-9.5,5.5v19.7L-418.1,400.7z
	 M-474.1,402.3l25.9,14.7v-11.4l-16.2-8.9L-474.1,402.3z M-475.9,400.7V370l9.5,5.5v19.7L-475.9,400.7z M-474.7,368l26.6-15v11
	l-17.2,9.5L-474.7,368z M-419.3,368l-26.6-15v11l17.2,9.4L-419.3,368z"/>
<path d="M-448.1,403.5l-15.9-8.8v-17.4l15.9,9.2V403.5z M-445.9,403.5l15.9-8.8v-17.4l-15.9,9.2V403.5z M-463,375.3
	l16-8.8l16,8.8l-16,9.2L-463,375.3z"/>
</svg>
