<?xml version="1.0" encoding="utf-8"?>
<!-- Generator: Adobe Illustrator 19.1.0, SVG Export Plug-In . SVG Version: 6.00 Build 0)  -->
<svg version="1.1" id="Layer_1" xmlns="http://www.w3.org/2000/svg" xmlns:xlink="http://www.w3.org/1999/xlink" x="0px" y="0px"
	 viewBox="0 0 1148 81" style="enable-background:new 0 0 1148 81;" xml:space="preserve">
<style type="text/css">
	.st0{fill:#FF007A;}
</style>
<polygon class="st0" points="1076,0 1004.5,44.7 933,0 861,45 789,0 717.5,44.7 646,0 574,45 502,0 430.5,44.7 359,0 287,45 215,0 
	143.5,44.7 72,0 0,45 0,81 72,36 143,80.4 143,81 143.5,80.7 144,81 144,80.4 215,36 287,81 359,36 430,80.4 430,81 430.5,80.7 
	431,81 431,80.4 502,36 574,81 646,36 717,80.4 717,81 717.5,80.7 718,81 718,80.4 789,36 861,81 933,36 1004,80.4 1004,81 
	1004.5,80.7 1005,81 1005,80.4 1076,36 1148,81 1148,45 "/>
</svg>
