<?xml version="1.0" encoding="utf-8"?>
<!-- Generator: Adobe Illustrator 19.1.0, SVG Export Plug-In . SVG Version: 6.00 Build 0)  -->
<svg version="1.1" id="Layer_1" xmlns="http://www.w3.org/2000/svg" xmlns:xlink="http://www.w3.org/1999/xlink" x="0px" y="0px"
	 viewBox="0 0 388.6 300.7" style="enable-background:new 0 0 388.6 300.7;" xml:space="preserve">
<style type="text/css">
	.st0{enable-background:new    ;}
	.st1{fill:#0F0F0F;}
	.st2{fill:#242424;}
	.st3{fill:#343434;}
	.st4{fill:#823D29;}
	.st5{fill:#BB583B;}
	.st6{fill:#D16242;}
	.st7{fill:#161616;}
	.st8{fill:#858585;}
	.st9{fill:#BFBFBF;}
	.st10{clip-path:url(#SVGID_2_);enable-background:new    ;}
	.st11{fill:#808080;}
	.st12{fill:#8A8A8A;}
	.st13{fill:#8F8F8F;}
	.st14{fill:#949494;}
	.st15{fill:#999999;}
	.st16{fill:#9E9E9E;}
	.st17{fill:#A3A3A3;}
	.st18{fill:#A8A8A8;}
	.st19{fill:#ADADAD;}
	.st20{fill:#B2B2B2;}
	.st21{clip-path:url(#SVGID_4_);enable-background:new    ;}
	.st22{clip-path:url(#SVGID_6_);enable-background:new    ;}
	.st23{fill:#3F011B;}
	.st24{fill:#41011C;}
	.st25{fill:#44011D;}
	.st26{fill:#46011E;}
	.st27{fill:#49011F;}
	.st28{fill:#4B0120;}
	.st29{fill:#4D0121;}
	.st30{fill:#500122;}
	.st31{fill:#520123;}
	.st32{fill:#550124;}
	.st33{fill:#570125;}
	.st34{clip-path:url(#SVGID_8_);enable-background:new    ;}
	.st35{fill:#41011B;}
	.st36{fill:#5D0127;}
	.st37{clip-path:url(#SVGID_10_);enable-background:new    ;}
	.st38{clip-path:url(#SVGID_12_);enable-background:new    ;}
	.st39{clip-path:url(#SVGID_14_);enable-background:new    ;}
	.st40{clip-path:url(#SVGID_16_);enable-background:new    ;}
	.st41{clip-path:url(#SVGID_18_);enable-background:new    ;}
	.st42{clip-path:url(#SVGID_20_);enable-background:new    ;}
	.st43{clip-path:url(#SVGID_22_);enable-background:new    ;}
	.st44{fill:#8D422D;}
	.st45{fill:#92442E;}
	.st46{fill:#974730;}
	.st47{fill:#9C4931;}
	.st48{fill:#A04B33;}
	.st49{fill:#A54E34;}
	.st50{fill:#AA5036;}
	.st51{fill:#AF5237;}
	.st52{fill:#88402B;}
	.st53{fill:#833E2A;}
	.st54{fill:#7E3B28;}
	.st55{clip-path:url(#SVGID_24_);enable-background:new    ;}
	.st56{clip-path:url(#SVGID_26_);enable-background:new    ;}
	.st57{fill:url(#SVGID_27_);}
	.st58{fill:#68012C;}
	.st59{fill:#D5D5D5;}
	.st60{fill:#181818;}
	.st61{fill:#3B3B3B;}
	.st62{fill:#46011D;}
	.st63{clip-path:url(#SVGID_29_);enable-background:new    ;}
	.st64{clip-path:url(#SVGID_31_);enable-background:new    ;}
</style>
<g>
	<g class="st0">
		<g>
			<polygon class="st1" points="375.8,136.5 375.8,152.8 254.5,82.8 254.5,66.5 			"/>
		</g>
		<g>
			<polygon class="st2" points="369.8,135.5 369.8,151.8 367.6,150.6 367.7,134.3 			"/>
		</g>
		<g>
			<polygon class="st2" points="364.2,135.5 364.1,151.8 362,150.6 362,134.3 			"/>
		</g>
		<g>
			<polygon class="st2" points="358.5,135.5 358.5,151.8 356.3,150.6 356.4,134.3 			"/>
		</g>
		<g>
			<polygon class="st2" points="352.8,135.5 352.8,151.8 350.7,150.6 350.7,134.3 			"/>
		</g>
		<g>
			<polygon class="st3" points="350.7,134.3 350.7,150.6 348.6,151.8 348.6,135.5 			"/>
		</g>
		<g>
			<polygon class="st4" points="350.7,136.7 350.7,153 348.6,151.8 348.6,135.5 			"/>
		</g>
		<g>
			<polygon class="st5" points="352.8,135.5 352.8,151.8 350.7,153 350.7,136.7 			"/>
		</g>
		<g>
			<polygon class="st6" points="352.8,135.5 350.7,136.7 348.6,135.5 350.7,134.3 			"/>
		</g>
		<g>
			<polygon class="st3" points="356.4,134.3 356.3,150.6 351.4,153.4 351.4,137.1 			"/>
		</g>
		<g>
			<polygon class="st4" points="353.6,138.4 353.5,154.7 351.4,153.4 351.4,137.1 			"/>
		</g>
		<g>
			<polygon class="st6" points="358.5,135.5 353.6,138.4 351.4,137.1 356.4,134.3 			"/>
		</g>
		<g>
			<polygon class="st5" points="358.5,135.5 358.5,151.8 353.5,154.7 353.6,138.4 			"/>
		</g>
		<g>
			<polygon class="st3" points="362,134.3 362,150.6 354.2,155.1 354.3,138.8 			"/>
		</g>
		<g>
			<polygon class="st5" points="364.2,135.5 364.1,151.8 356.4,156.3 356.4,140 			"/>
		</g>
		<g>
			<polygon class="st6" points="364.2,135.5 356.4,140 354.3,138.8 362,134.3 			"/>
		</g>
		<g>
			<polygon class="st4" points="356.4,140 356.4,156.3 354.2,155.1 354.3,138.8 			"/>
		</g>
		<g>
			<polygon class="st3" points="367.7,134.3 367.6,150.6 357.1,156.7 357.1,140.4 			"/>
		</g>
		<g>
			<polygon class="st5" points="369.8,135.5 369.8,151.8 359.2,158 359.2,141.7 			"/>
		</g>
		<g>
			<polygon class="st6" points="369.8,135.5 359.2,141.7 357.1,140.4 367.7,134.3 			"/>
		</g>
		<g>
			<polygon class="st4" points="359.2,141.7 359.2,158 357.1,156.7 357.1,140.4 			"/>
		</g>
		<g>
			<polygon class="st3" points="375.8,136.5 375.8,152.8 361,161.4 361,145.1 			"/>
		</g>
		<g>
			<polygon class="st7" points="254.5,66.5 254.5,82.8 13.4,222.9 13.5,206.6 			"/>
		</g>
		<g>
			<polygon class="st2" points="361,145.1 361,161.4 239.7,91.4 239.7,75.1 			"/>
		</g>
		<g>
			<polygon class="st8" points="318.7,162.3 318.7,178.6 210.1,116 210.2,99.7 			"/>
		</g>
		<g>
			<polygon class="st9" points="210.2,99.7 210.1,116 102.3,178.6 102.3,162.3 			"/>
		</g>
		<g>
			<polygon class="st9" points="37.1,199.8 37.1,216.1 34.3,217.8 34.3,201.5 			"/>
		</g>
		<g>
			<polygon class="st9" points="34.3,201.5 34.3,217.8 33.6,218.2 33.6,201.9 			"/>
		</g>
		<g class="st0">
			<defs>
				<path id="SVGID_1_" class="st0" d="M139,221.5c-10.3-6-27.1-6-37.3,0l0-16.3c10.3-6,27-6,37.3,0
					C139.1,210.6,139.1,216.1,139,221.5z"/>
			</defs>
			<clipPath id="SVGID_2_">
				<use xlink:href="#SVGID_1_"  style="overflow:visible;"/>
			</clipPath>
			<g class="st10">
				<path class="st11" d="M146.9,216.1l0,16.3c0-3.9-2.6-7.9-7.8-10.9c-1.2-0.7-2.5-1.3-3.8-1.8l0-16.3c1.3,0.5,2.6,1.1,3.8,1.8
					C144.3,208.2,146.9,212.2,146.9,216.1"/>
				<path class="st8" d="M135.3,203.4l0,16.3c-1-0.4-2.1-0.8-3.2-1.1l0-16.3C133.2,202.6,134.3,203,135.3,203.4"/>
				<path class="st12" d="M132.1,202.3l0,16.3c-0.9-0.3-1.8-0.5-2.8-0.7l0-16.3C130.3,201.8,131.2,202,132.1,202.3"/>
				<path class="st13" d="M129.3,201.6l0,16.3c-0.9-0.2-1.7-0.3-2.6-0.5l0-16.3C127.6,201.3,128.5,201.4,129.3,201.6"/>
				<path class="st14" d="M126.7,201.2l0,16.3c-0.9-0.1-1.7-0.2-2.6-0.3l0-16.3C125,201,125.9,201,126.7,201.2"/>
				<path class="st15" d="M124.1,200.9l0,16.3c-0.9-0.1-1.7-0.1-2.6-0.1l0-16.3C122.4,200.8,123.3,200.8,124.1,200.9"/>
				<path class="st16" d="M121.5,200.7l0,16.3c-0.9,0-1.8,0-2.7,0l0-16.3C119.7,200.7,120.6,200.7,121.5,200.7"/>
				<path class="st17" d="M118.8,200.8l0,16.3c-1,0-2,0.1-2.9,0.2l0-16.3C116.9,200.9,117.8,200.8,118.8,200.8"/>
				<path class="st18" d="M115.9,201l0,16.3c-1.1,0.1-2.3,0.3-3.4,0.5l0-16.3C113.6,201.2,114.8,201.1,115.9,201"/>
				<path class="st19" d="M112.5,201.4l0,16.3c-1.7,0.3-3.4,0.7-5,1.2l0-16.3C109.1,202.1,110.8,201.7,112.5,201.4"/>
				<path class="st20" d="M107.5,202.7l0,16.3c-2.1,0.7-4,1.5-5.8,2.5l0-16.3C103.5,204.2,105.5,203.3,107.5,202.7"/>
			</g>
		</g>
		<g class="st0">
			<defs>
				<path id="SVGID_3_" class="st0" d="M101.7,221.5c-5.1,3-7.6,6.8-7.7,10.7l0-16.3c0-3.9,2.6-7.8,7.7-10.7
					C101.7,210.1,101.7,216.6,101.7,221.5z"/>
			</defs>
			<clipPath id="SVGID_4_">
				<use xlink:href="#SVGID_3_"  style="overflow:visible;"/>
			</clipPath>
			<g class="st21">
				<path class="st20" d="M101.8,205.2l0,16.3c-0.1,0.1-0.2,0.1-0.3,0.2l0-16.3C101.5,205.3,101.6,205.3,101.8,205.2"/>
				<path class="st19" d="M101.4,205.4l0,16.3c-1.3,0.8-2.4,1.6-3.3,2.5l0-16.3C99,207,100.2,206.2,101.4,205.4"/>
				<path class="st18" d="M98.1,207.9l0,16.3c-0.6,0.6-1.2,1.2-1.6,1.8l0-16.3C96.9,209,97.5,208.4,98.1,207.9"/>
				<path class="st17" d="M96.5,209.6l0,16.3c-0.4,0.5-0.8,1-1.1,1.6l0-16.3C95.7,210.7,96.1,210.1,96.5,209.6"/>
				<path class="st16" d="M95.4,211.2l0,16.3c-0.3,0.5-0.5,1-0.7,1.5l0-16.3C94.9,212.2,95.1,211.7,95.4,211.2"/>
				<path class="st15" d="M94.7,212.7l0,16.3c-0.2,0.5-0.3,1-0.4,1.5l0-16.3C94.4,213.7,94.5,213.2,94.7,212.7"/>
				<path class="st14" d="M94.3,214.2l0,16.3c-0.1,0.5-0.2,1-0.2,1.5l0-16.3C94.1,215.2,94.2,214.7,94.3,214.2"/>
				<path class="st13" d="M94.1,215.7l0,16.3c0,0.1,0,0.2,0,0.2l0-16.3C94.1,215.9,94.1,215.8,94.1,215.7"/>
			</g>
		</g>
		<g class="st0">
			<defs>
				<path id="SVGID_5_" class="st0" d="M141.9,216.1l0,16.3c0-3.2-2.1-6.4-6.3-8.8c-8.4-4.8-22-4.8-30.3,0c-4.1,2.4-6.2,5.6-6.2,8.7
					l0-16.3c0-3.2,2.1-6.3,6.2-8.7c8.3-4.8,21.9-4.8,30.3,0C139.8,209.7,141.9,212.9,141.9,216.1z"/>
			</defs>
			<clipPath id="SVGID_6_">
				<use xlink:href="#SVGID_5_"  style="overflow:visible;"/>
			</clipPath>
			<g class="st22">
				<path class="st23" d="M141.9,216.1l0,16.3c0-3.2-2.1-6.4-6.3-8.8c-1-0.6-2-1-3.1-1.5l0-16.3c1.1,0.4,2.1,0.9,3.1,1.5
					C139.8,209.7,141.9,212.9,141.9,216.1"/>
				<path class="st24" d="M132.5,205.8l0,16.3c-0.8-0.3-1.7-0.6-2.6-0.9l0-16.3C130.8,205.2,131.7,205.4,132.5,205.8"/>
				<path class="st25" d="M129.9,204.9l0,16.3c-0.7-0.2-1.5-0.4-2.2-0.5l0-16.3C128.4,204.5,129.2,204.7,129.9,204.9"/>
				<path class="st26" d="M127.7,204.4l0,16.3c-0.7-0.1-1.4-0.3-2.1-0.4l0-16.3C126.3,204.1,127,204.2,127.7,204.4"/>
				<path class="st27" d="M125.5,204l0,16.3c-0.7-0.1-1.4-0.2-2.1-0.2l0-16.3C124.2,203.8,124.9,203.9,125.5,204"/>
				<path class="st28" d="M123.5,203.7l0,16.3c-0.7-0.1-1.4-0.1-2.1-0.1l0-16.3C122.1,203.7,122.8,203.7,123.5,203.7"/>
				<path class="st29" d="M121.3,203.6l0,16.3c-0.7,0-1.5,0-2.2,0l0-16.3C119.9,203.6,120.6,203.6,121.3,203.6"/>
				<path class="st30" d="M119.2,203.6l0,16.3c-0.8,0-1.6,0.1-2.4,0.2l0-16.3C117.6,203.7,118.4,203.7,119.2,203.6"/>
				<path class="st31" d="M116.8,203.8l0,16.3c-0.9,0.1-1.8,0.2-2.7,0.4l0-16.3C114.9,204,115.8,203.9,116.8,203.8"/>
				<path class="st32" d="M114,204.2l0,16.3c-1.4,0.3-2.8,0.6-4.1,1l0-16.3C111.3,204.8,112.6,204.4,114,204.2"/>
				<path class="st33" d="M110,205.2l0,16.3c-1.7,0.5-3.3,1.2-4.7,2.1c-0.1,0.1-0.2,0.1-0.3,0.2l0-16.3c0.1-0.1,0.2-0.1,0.3-0.2
					C106.7,206.4,108.3,205.7,110,205.2"/>
				<path class="st32" d="M105,207.4l0,16.3c-1,0.6-1.9,1.3-2.7,2l0-16.3C103.1,208.7,104,208,105,207.4"/>
				<path class="st31" d="M102.3,209.4l0,16.3c-0.5,0.5-0.9,0.9-1.3,1.4l0-16.3C101.4,210.3,101.8,209.9,102.3,209.4"/>
				<path class="st30" d="M101,210.8l0,16.3c-0.3,0.4-0.6,0.8-0.9,1.3l0-16.3C100.4,211.7,100.7,211.2,101,210.8"/>
				<path class="st29" d="M100.2,212.1l0,16.3c-0.2,0.4-0.4,0.8-0.6,1.2l0-16.3C99.7,212.9,99.9,212.5,100.2,212.1"/>
				<path class="st28" d="M99.6,213.3l0,16.3c-0.1,0.4-0.3,0.8-0.3,1.2l0-16.3C99.3,214.1,99.4,213.7,99.6,213.3"/>
				<path class="st27" d="M99.2,214.5l0,16.3c-0.1,0.4-0.1,0.8-0.1,1.2l0-16.3C99.1,215.4,99.2,214.9,99.2,214.5"/>
				<path class="st26" d="M99.1,215.8l0,16.3c0,0.1,0,0.1,0,0.2l0-16.3C99.1,215.9,99.1,215.8,99.1,215.8"/>
			</g>
		</g>
		<g>
			<polygon class="st8" points="126.5,210 126.4,226.3 120.6,222.9 120.6,206.6 			"/>
		</g>
		<g>
			<polygon class="st8" points="136.4,215.9 136.3,232.2 130.5,228.8 130.5,212.5 			"/>
		</g>
		<g>
			<polygon class="st9" points="120.6,206.6 120.6,222.9 104.5,232.2 104.6,215.9 			"/>
		</g>
		<g class="st0">
			<defs>
				<path id="SVGID_7_" class="st0" d="M146.8,232.4c0-3.9-2.6-7.9-7.8-10.9c0-5.4,0-10.9,0-16.3c5.2,3,7.8,7,7.8,10.9
					C146.9,221,146.8,227.5,146.8,232.4z"/>
			</defs>
			<clipPath id="SVGID_8_">
				<use xlink:href="#SVGID_7_"  style="overflow:visible;"/>
			</clipPath>
			<g class="st34">
				<path class="st11" d="M146.9,216.1l0,16.3c0-3.9-2.6-7.9-7.8-10.9c-1.2-0.7-2.5-1.3-3.8-1.8l0-16.3c1.3,0.5,2.6,1.1,3.8,1.8
					C144.3,208.2,146.9,212.2,146.9,216.1"/>
			</g>
		</g>
		<g>
			<polygon class="st35" points="110.4,219.3 110.4,235.6 104.5,232.2 104.6,215.9 			"/>
		</g>
		<g>
			<polygon class="st36" points="126.5,210 126.4,226.3 110.4,235.6 110.4,219.3 			"/>
		</g>
		<g>
			<polygon class="st9" points="130.5,212.5 130.5,228.8 114.4,238.1 114.5,221.8 			"/>
		</g>
		<g class="st0">
			<defs>
				<path id="SVGID_9_" class="st0" d="M99,232.3l0-16.3c0,3.2,2.1,6.4,6.3,8.8l0,16.3C101.1,238.7,99,235.5,99,232.3z"/>
			</defs>
			<clipPath id="SVGID_10_">
				<use xlink:href="#SVGID_9_"  style="overflow:visible;"/>
			</clipPath>
			<g class="st37">
				<path class="st11" d="M105.4,224.8l0,16.3c-4.2-2.4-6.3-5.6-6.3-8.8l0-16.3C99.1,219.2,101.2,222.4,105.4,224.8"/>
			</g>
		</g>
		<g>
			<polygon class="st36" points="136.4,215.9 136.3,232.2 120.3,241.5 120.3,225.2 			"/>
		</g>
		<g>
			<polygon class="st8" points="71.4,219.6 71.3,235.9 37.1,216.1 37.1,199.8 			"/>
		</g>
		<g class="st0">
			<defs>
				<path id="SVGID_11_" class="st0" d="M79,220.2c0,4.1,0,8.2,0,12.4C79,228.5,79,224.3,79,220.2C79,220.2,79,220.2,79,220.2z"/>
			</defs>
			<clipPath id="SVGID_12_">
				<use xlink:href="#SVGID_11_"  style="overflow:visible;"/>
			</clipPath>
			<g class="st38">
				<path class="st11" d="M80.9,222.9l0,16.3c0-1-0.6-1.9-1.9-2.6c-0.3-0.2-0.6-0.3-0.9-0.4l0-16.3c0.3,0.1,0.6,0.3,0.9,0.4
					C80.3,221,80.9,221.9,80.9,222.9"/>
			</g>
		</g>
		<g class="st0">
			<defs>
				<path id="SVGID_13_" class="st0" d="M71.3,235.9c0-5.4,0-10.9,0-16.3c2.4-0.8,5.5-0.6,7.6,0.6c0,5.4,0,10.9,0,16.3
					c0-1.6,0-3.1,0-4.7c0-2.1,0-4.2,0-6.4c0-1,0-2,0-3.1c0-0.4,0-1,0-1.5c0-0.2-0.1-0.5,0-0.7c1.3,0.7,1.9,1.7,1.9,2.6l0,16.3
					c0-1-0.6-1.9-1.9-2.6C76.9,235.3,73.8,235.1,71.3,235.9z"/>
			</defs>
			<clipPath id="SVGID_14_">
				<use xlink:href="#SVGID_13_"  style="overflow:visible;"/>
			</clipPath>
			<g class="st39">
				<path class="st11" d="M80.9,222.9l0,16.3c0-1-0.6-1.9-1.9-2.6c-0.3-0.2-0.6-0.3-0.9-0.4l0-16.3c0.3,0.1,0.6,0.3,0.9,0.4
					C80.3,221,80.9,221.9,80.9,222.9"/>
				<path class="st8" d="M78.1,219.8l0,16.3c-0.3-0.1-0.5-0.2-0.8-0.3l0-16.3C77.5,219.6,77.8,219.7,78.1,219.8"/>
				<path class="st12" d="M77.3,219.5l0,16.3c-0.2-0.1-0.4-0.1-0.7-0.2l0-16.3C76.8,219.4,77.1,219.4,77.3,219.5"/>
				<path class="st13" d="M76.6,219.3l0,16.3c-0.2,0-0.4-0.1-0.6-0.1l0-16.3C76.2,219.3,76.4,219.3,76.6,219.3"/>
				<path class="st14" d="M76,219.2l0,16.3c-0.2,0-0.4-0.1-0.6-0.1l0-16.3C75.6,219.2,75.8,219.2,76,219.2"/>
				<path class="st15" d="M75.4,219.2l0,16.3c-0.2,0-0.4,0-0.6,0l0-16.3C74.9,219.1,75.1,219.2,75.4,219.2"/>
				<path class="st16" d="M74.7,219.1l0,16.3c-0.2,0-0.4,0-0.7,0l0-16.3C74.3,219.1,74.5,219.1,74.7,219.1"/>
				<path class="st17" d="M74.1,219.1l0,16.3c-0.2,0-0.5,0-0.7,0l0-16.3C73.6,219.2,73.8,219.1,74.1,219.1"/>
				<path class="st18" d="M73.4,219.2l0,16.3c-0.3,0-0.6,0.1-0.8,0.1l0-16.3C72.8,219.2,73.1,219.2,73.4,219.2"/>
				<path class="st19" d="M72.5,219.3l0,16.3c-0.4,0.1-0.8,0.2-1.2,0.3l0-16.3C71.7,219.5,72.1,219.4,72.5,219.3"/>
			</g>
		</g>
		<g class="st0">
			<defs>
				<path id="SVGID_15_" class="st0" d="M71.3,235.9c-0.5,0.2-1,0.4-1.5,0.6c0-5.4,0-10.9,0-16.3c0.4-0.3,0.9-0.5,1.5-0.6
					C71.4,224.5,71.3,231,71.3,235.9z"/>
			</defs>
			<clipPath id="SVGID_16_">
				<use xlink:href="#SVGID_15_"  style="overflow:visible;"/>
			</clipPath>
			<g class="st40">
				<path class="st32" d="M71.4,219.6l0,16.3c0,0,0,0,0,0L71.4,219.6C71.4,219.6,71.4,219.6,71.4,219.6"/>
				<path class="st33" d="M71.3,219.6l0,16.3c-0.5,0.2-1,0.4-1.4,0.6c0,0-0.1,0-0.1,0.1l0-16.3c0,0,0.1,0,0.1-0.1
					C70.4,220,70.8,219.8,71.3,219.6"/>
			</g>
		</g>
		<g>
			<polygon class="st35" points="68.3,221.9 68.2,238.2 33.6,218.2 33.6,201.9 			"/>
		</g>
		<g class="st0">
			<defs>
				<path id="SVGID_17_" class="st0" d="M69.9,236.5c-0.8,0.5-1.4,1-1.6,1.7l0-16.3c0.3-0.6,0.8-1.2,1.6-1.7
					C69.9,225.7,69.9,231.1,69.9,236.5z"/>
			</defs>
			<clipPath id="SVGID_18_">
				<use xlink:href="#SVGID_17_"  style="overflow:visible;"/>
			</clipPath>
			<g class="st41">
				<path class="st33" d="M71.3,219.6l0,16.3c-0.5,0.2-1,0.4-1.4,0.6c0,0-0.1,0-0.1,0.1l0-16.3c0,0,0.1,0,0.1-0.1
					C70.4,220,70.8,219.8,71.3,219.6"/>
				<path class="st32" d="M69.8,220.3l0,16.3c-0.3,0.2-0.6,0.4-0.8,0.6l0-16.3C69.3,220.7,69.5,220.5,69.8,220.3"/>
				<path class="st31" d="M69,220.9l0,16.3c-0.1,0.1-0.3,0.3-0.4,0.4l0-16.3C68.7,221.2,68.9,221,69,220.9"/>
				<path class="st30" d="M68.6,221.3l0,16.3c-0.1,0.1-0.2,0.3-0.3,0.4l0-16.3C68.4,221.5,68.5,221.4,68.6,221.3"/>
				<path class="st29" d="M68.4,221.7l0,16.3c0,0.1-0.1,0.1-0.1,0.2l0-16.3C68.3,221.8,68.3,221.7,68.4,221.7"/>
			</g>
		</g>
		<g class="st0">
			<defs>
				<path id="SVGID_19_" class="st0" d="M68.2,238.2c-0.1,0.3-0.2,0.6-0.2,1l0-16.3c0-0.3,0.1-0.6,0.2-1
					C68.3,226.8,69.3,233.4,68.2,238.2z"/>
			</defs>
			<clipPath id="SVGID_20_">
				<use xlink:href="#SVGID_19_"  style="overflow:visible;"/>
			</clipPath>
			<g class="st42">
				<path class="st16" d="M68.3,221.9l0,16.3c0,0.1,0,0.1-0.1,0.2l0-16.3C68.2,222,68.2,221.9,68.3,221.9"/>
				<path class="st15" d="M68.2,222l0,16.3c0,0.1-0.1,0.2-0.1,0.4l0-16.3C68.1,222.3,68.2,222.2,68.2,222"/>
				<path class="st14" d="M68.1,222.4l0,16.3c0,0.1,0,0.2,0,0.4l0-16.3C68.1,222.6,68.1,222.5,68.1,222.4"/>
				<path class="st13" d="M68.1,222.8l0,16.3c0,0,0,0,0,0.1L68.1,222.8C68.1,222.8,68.1,222.8,68.1,222.8"/>
			</g>
		</g>
		<g>
			<polygon class="st5" points="318.7,162.3 318.7,178.6 210.8,241.3 210.9,225 			"/>
		</g>
		<g>
			<polygon class="st4" points="210.9,225 210.8,241.3 102.3,178.6 102.3,162.3 			"/>
		</g>
		<g>
			<polygon class="st35" points="120.3,225.2 120.3,241.5 114.4,238.1 114.5,221.8 			"/>
		</g>
		<g class="st0">
			<defs>
				<path id="SVGID_21_" class="st0" d="M80.9,222.9l0,16.3c0,0.6-0.3,1.2-0.8,1.8c-0.3,0.3-0.6,0.6-1.1,0.8
					c-0.5,0.3-1.2,0.6-1.8,0.7c-2.4,0.6-5.3,0.4-7.3-0.7c-1.3-0.7-1.9-1.7-1.9-2.6l0-16.3c0,1,0.6,1.9,1.9,2.6
					c2,1.1,4.9,1.4,7.3,0.7c0.7-0.2,1.3-0.4,1.8-0.7c0.4-0.3,0.8-0.5,1.1-0.8C80.6,224.1,80.9,223.5,80.9,222.9z"/>
			</defs>
			<clipPath id="SVGID_22_">
				<use xlink:href="#SVGID_21_"  style="overflow:visible;"/>
			</clipPath>
			<g class="st43">
				<path class="st44" d="M80.9,222.9l0,16.3c0,0,0,0,0,0.1L80.9,222.9C80.9,222.9,80.9,222.9,80.9,222.9"/>
				<path class="st45" d="M80.9,222.9l0,16.3c0,0.1,0,0.2,0,0.4l0-16.3C80.9,223.2,80.9,223,80.9,222.9"/>
				<path class="st46" d="M80.8,223.3l0,16.3c0,0.1-0.1,0.2-0.1,0.4l0-16.3C80.8,223.5,80.8,223.4,80.8,223.3"/>
				<path class="st47" d="M80.7,223.7l0,16.3c0,0.1-0.1,0.2-0.2,0.4l0-16.3C80.6,223.9,80.7,223.8,80.7,223.7"/>
				<path class="st48" d="M80.6,224l0,16.3c-0.1,0.1-0.2,0.3-0.3,0.4l0-16.3C80.4,224.3,80.5,224.1,80.6,224"/>
				<path class="st49" d="M80.3,224.4l0,16.3c-0.1,0.1-0.1,0.2-0.2,0.2c-0.1,0.1-0.1,0.1-0.2,0.2l0-16.3c0.1-0.1,0.1-0.1,0.2-0.2
					C80.2,224.6,80.2,224.5,80.3,224.4"/>
				<path class="st50" d="M79.9,224.8l0,16.3c-0.2,0.2-0.5,0.4-0.8,0.6l0-16.3C79.4,225.2,79.7,225,79.9,224.8"/>
				<path class="st51" d="M79.1,225.4l0,16.3c0,0-0.1,0-0.1,0.1c-0.4,0.3-0.9,0.5-1.4,0.6l0-16.3C78.1,225.9,78.6,225.7,79.1,225.4
					C79.1,225.5,79.1,225.4,79.1,225.4"/>
				<path class="st50" d="M77.6,226.1l0,16.3c-0.1,0-0.3,0.1-0.4,0.1c-0.3,0.1-0.5,0.1-0.8,0.2l0-16.3c0.3,0,0.5-0.1,0.8-0.2
					C77.3,226.2,77.5,226.1,77.6,226.1"/>
				<path class="st49" d="M76.4,226.4l0,16.3c-0.3,0-0.5,0.1-0.8,0.1l0-16.3C75.9,226.5,76.1,226.4,76.4,226.4"/>
				<path class="st48" d="M75.6,226.5l0,16.3c-0.2,0-0.5,0-0.7,0l0-16.3C75.1,226.5,75.3,226.5,75.6,226.5"/>
				<path class="st47" d="M74.9,226.6l0,16.3c-0.2,0-0.4,0-0.7,0l0-16.3C74.4,226.6,74.7,226.6,74.9,226.6"/>
				<path class="st46" d="M74.2,226.6l0,16.3c-0.2,0-0.4,0-0.6,0l0-16.3C73.8,226.5,74,226.6,74.2,226.6"/>
				<path class="st45" d="M73.6,226.5l0,16.3c-0.2,0-0.4,0-0.6-0.1l0-16.3C73.2,226.5,73.4,226.5,73.6,226.5"/>
				<path class="st44" d="M73,226.5l0,16.3c-0.2,0-0.4-0.1-0.6-0.1l0-16.3C72.5,226.4,72.7,226.4,73,226.5"/>
				<path class="st52" d="M72.3,226.3l0,16.3c-0.2,0-0.5-0.1-0.7-0.2l0-16.3C71.9,226.2,72.1,226.3,72.3,226.3"/>
				<path class="st53" d="M71.7,226.2l0,16.3c-0.3-0.1-0.5-0.2-0.8-0.3l0-16.3C71.1,226,71.4,226.1,71.7,226.2"/>
				<path class="st54" d="M70.9,225.9l0,16.3c-0.3-0.1-0.6-0.3-0.9-0.4c-1.3-0.7-1.9-1.7-1.9-2.6l0-16.3c0,1,0.6,1.9,1.9,2.6
					C70.2,225.6,70.6,225.8,70.9,225.9"/>
			</g>
		</g>
		<g class="st0">
			<defs>
				<path id="SVGID_23_" class="st0" d="M141.9,216.1l0,16.3c0,3.2-2.1,6.3-6.2,8.7c-8.3,4.8-21.9,4.8-30.3,0l0-16.3
					c8.4,4.8,22,4.8,30.3,0C139.8,222.4,141.9,219.2,141.9,216.1z"/>
			</defs>
			<clipPath id="SVGID_24_">
				<use xlink:href="#SVGID_23_"  style="overflow:visible;"/>
			</clipPath>
			<g class="st55">
				<path class="st13" d="M141.9,216.1l0,16.3c0,0.1,0,0.1,0,0.2l0-16.3C141.9,216.2,141.9,216.1,141.9,216.1"/>
				<path class="st14" d="M141.9,216.3l0,16.3c0,0.4-0.1,0.8-0.1,1.2l0-16.3C141.8,217.1,141.9,216.7,141.9,216.3"/>
				<path class="st15" d="M141.7,217.5l0,16.3c-0.1,0.4-0.2,0.8-0.3,1.2l0-16.3C141.5,218.3,141.7,217.9,141.7,217.5"/>
				<path class="st16" d="M141.4,218.7l0,16.3c-0.2,0.4-0.3,0.8-0.6,1.2l0-16.3C141,219.5,141.2,219.1,141.4,218.7"/>
				<path class="st17" d="M140.8,219.9l0,16.3c-0.2,0.4-0.5,0.9-0.9,1.3l0-16.3C140.3,220.8,140.6,220.4,140.8,219.9"/>
				<path class="st18" d="M140,221.2l0,16.3c-0.4,0.5-0.8,1-1.3,1.4l0-16.3C139.1,222.2,139.6,221.7,140,221.2"/>
				<path class="st19" d="M138.6,222.6l0,16.3c-0.8,0.7-1.7,1.4-2.7,2l0-16.3C137,224,137.9,223.3,138.6,222.6"/>
				<path class="st20" d="M135.9,224.6l0,16.3c-0.1,0.1-0.2,0.1-0.3,0.2c-1.4,0.8-3,1.5-4.7,2.1l0-16.3c1.7-0.5,3.3-1.2,4.7-2.1
					C135.8,224.7,135.8,224.7,135.9,224.6"/>
				<path class="st19" d="M131,226.8l0,16.3c-1.3,0.4-2.7,0.8-4.1,1l0-16.3C128.3,227.6,129.7,227.3,131,226.8"/>
				<path class="st18" d="M126.9,227.8l0,16.3c-0.9,0.2-1.8,0.3-2.7,0.4l0-16.3C125.1,228.1,126,228,126.9,227.8"/>
				<path class="st17" d="M124.2,228.2l0,16.3c-0.8,0.1-1.6,0.1-2.4,0.2l0-16.3C122.6,228.4,123.4,228.3,124.2,228.2"/>
				<path class="st16" d="M121.8,228.4l0,16.3c-0.7,0-1.5,0-2.2,0l0-16.3C120.4,228.4,121.1,228.4,121.8,228.4"/>
				<path class="st15" d="M119.6,228.4l0,16.3c-0.7,0-1.4-0.1-2.1-0.1l0-16.3C118.2,228.3,118.9,228.4,119.6,228.4"/>
				<path class="st14" d="M117.5,228.3l0,16.3c-0.7-0.1-1.4-0.1-2.1-0.2l0-16.3C116.1,228.1,116.8,228.2,117.5,228.3"/>
				<path class="st13" d="M115.4,228.1l0,16.3c-0.7-0.1-1.4-0.2-2.1-0.4l0-16.3C114,227.8,114.7,227.9,115.4,228.1"/>
				<path class="st12" d="M113.3,227.7l0,16.3c-0.8-0.2-1.5-0.3-2.2-0.5l0-16.3C111.8,227.3,112.5,227.5,113.3,227.7"/>
				<path class="st8" d="M111.1,227.1l0,16.3c-0.9-0.3-1.8-0.5-2.6-0.9l0-16.3C109.3,226.6,110.2,226.9,111.1,227.1"/>
				<path class="st11" d="M108.5,226.3l0,16.3c-1.1-0.4-2.1-0.9-3.1-1.5l0-16.3C106.4,225.3,107.4,225.8,108.5,226.3"/>
			</g>
		</g>
		<g class="st0">
			<defs>
				<path id="SVGID_25_" class="st0" d="M146.9,216.1l0,16.3c0,3.9-2.6,7.8-7.7,10.7c-10.3,6-27,6-37.3,0c-5.2-3-7.8-7-7.8-10.9
					l0-16.3c0,3.9,2.6,7.9,7.8,10.9c10.3,6,27.1,6,37.3,0C144.3,223.9,146.9,220,146.9,216.1z"/>
			</defs>
			<clipPath id="SVGID_26_">
				<use xlink:href="#SVGID_25_"  style="overflow:visible;"/>
			</clipPath>
			<g class="st56">
				<path class="st26" d="M146.9,216.1l0,16.3c0,0.1,0,0.2,0,0.2l0-16.3C146.9,216.2,146.9,216.2,146.9,216.1"/>
				<path class="st27" d="M146.9,216.3l0,16.3c0,0.5-0.1,1-0.2,1.5l0-16.3C146.8,217.3,146.9,216.8,146.9,216.3"/>
				<path class="st28" d="M146.7,217.8l0,16.3c-0.1,0.5-0.2,1-0.4,1.5l0-16.3C146.5,218.8,146.6,218.3,146.7,217.8"/>
				<path class="st29" d="M146.3,219.3l0,16.3c-0.2,0.5-0.4,1-0.7,1.5l0-16.3C145.8,220.3,146.1,219.8,146.3,219.3"/>
				<path class="st30" d="M145.6,220.8l0,16.3c-0.3,0.5-0.7,1.1-1.1,1.6l0-16.3C144.9,221.9,145.3,221.4,145.6,220.8"/>
				<path class="st31" d="M144.5,222.4l0,16.3c-0.5,0.6-1,1.2-1.6,1.8l0-16.3C143.5,223.6,144,223,144.5,222.4"/>
				<path class="st32" d="M142.9,224.2l0,16.3c-0.9,0.9-2.1,1.7-3.3,2.5l0-16.3C140.8,225.9,141.9,225,142.9,224.2"/>
				<path class="st33" d="M139.5,226.6l0,16.3c-0.1,0.1-0.2,0.1-0.3,0.2c-1.8,1-3.7,1.9-5.8,2.5l0-16.3c2.1-0.7,4-1.5,5.8-2.5
					C139.3,226.8,139.4,226.7,139.5,226.6"/>
				<path class="st32" d="M133.5,229.4l0,16.3c-1.6,0.5-3.3,0.9-5,1.2l0-16.3C130.2,230.3,131.9,229.9,133.5,229.4"/>
				<path class="st31" d="M128.5,230.6l0,16.3c-1.1,0.2-2.2,0.4-3.4,0.5l0-16.3C126.2,231,127.3,230.8,128.5,230.6"/>
				<path class="st30" d="M125.1,231.1l0,16.3c-1,0.1-2,0.2-2.9,0.2l0-16.3C123.1,231.2,124.1,231.2,125.1,231.1"/>
				<path class="st29" d="M122.1,231.3l0,16.3c-0.9,0-1.8,0-2.7,0l0-16.3C120.3,231.3,121.2,231.3,122.1,231.3"/>
				<path class="st28" d="M119.4,231.3l0,16.3c-0.9,0-1.7-0.1-2.6-0.1l0-16.3C117.7,231.2,118.6,231.3,119.4,231.3"/>
				<path class="st27" d="M116.8,231.1l0,16.3c-0.9-0.1-1.7-0.2-2.6-0.3l0-16.3C115.1,231,116,231.1,116.8,231.1"/>
				<path class="st26" d="M114.3,230.9l0,16.3c-0.9-0.1-1.8-0.3-2.6-0.5l0-16.3C112.5,230.6,113.4,230.7,114.3,230.9"/>
				<path class="st25" d="M111.6,230.4l0,16.3c-0.9-0.2-1.9-0.4-2.8-0.7l0-16.3C109.8,230,110.7,230.2,111.6,230.4"/>
				<path class="st24" d="M108.9,229.7l0,16.3c-1.1-0.3-2.2-0.7-3.2-1.1l0-16.3C106.7,229.1,107.8,229.4,108.9,229.7"/>
				<path class="st23" d="M105.7,228.6l0,16.3c-1.3-0.5-2.6-1.1-3.8-1.8c-5.2-3-7.8-7-7.8-10.9l0-16.3c0,3.9,2.6,7.9,7.8,10.9
					C103.1,227.5,104.3,228.1,105.7,228.6"/>
			</g>
		</g>
		<g>
			<polygon class="st8" points="145.7,262.5 145.6,278.8 80.1,240.9 80.1,224.6 			"/>
		</g>
		<g>
			<polygon class="st1" points="142.9,264.1 142.8,280.4 77.2,242.5 77.2,226.2 			"/>
		</g>
		<g>
			<polygon class="st7" points="145.7,262.5 145.6,278.8 142.8,280.4 142.9,264.1 			"/>
		</g>
		<g>
			<linearGradient id="SVGID_27_" gradientUnits="userSpaceOnUse" x1="133.3045" y1="143.3427" x2="250.3045" y2="213.8427">
				<stop  offset="0" style="stop-color:#F7F7F7"/>
				<stop  offset="1" style="stop-color:#CFCFCF"/>
			</linearGradient>
			<path class="st57" d="M239.7,75.1l121.3,70L134.8,276.6l-121.3-70L239.7,75.1z M210.9,225l107.8-62.7L210.2,99.7l-107.8,62.7
				L210.9,225 M101.8,205.2c-10.3,6-10.2,15.7,0.1,21.6c10.3,6,27.1,6,37.3,0c10.3-6,10.2-15.7-0.1-21.6
				C128.8,199.2,112,199.2,101.8,205.2 M142.9,264.1l2.8-1.6l-65.6-37.9c1.3-1.4,0.9-3.2-1.1-4.4c-2.1-1.2-5.2-1.4-7.6-0.6
				l-34.2-19.8l-2.8,1.6l-0.7,0.4l34.7,20c-0.6,1.2,0,2.6,1.7,3.6c2,1.1,4.9,1.4,7.3,0.7L142.9,264.1"/>
		</g>
		<g>
			<polygon class="st58" points="136.4,215.9 120.3,225.2 114.5,221.8 130.5,212.5 			"/>
		</g>
		<g>
			<path class="st59" d="M105.4,224.8c-8.4-4.8-8.4-12.7-0.1-17.5c8.3-4.8,21.9-4.8,30.3,0c8.4,4.8,8.4,12.7,0.1,17.5
				C127.4,229.6,113.8,229.6,105.4,224.8z M120.6,206.6l-16,9.3l5.9,3.4l16-9.3L120.6,206.6 M130.5,212.5l-16,9.3l5.9,3.4l16-9.3
				L130.5,212.5"/>
		</g>
		<g>
			<path class="st58" d="M139.1,205.2c10.3,6,10.4,15.7,0.1,21.6c-10.3,6-27,6-37.3,0c-10.3-6-10.4-15.7-0.1-21.6
				C112,199.2,128.8,199.2,139.1,205.2z M105.4,224.8c8.4,4.8,22,4.8,30.3,0c8.3-4.8,8.3-12.7-0.1-17.5c-8.4-4.8-22-4.8-30.3,0
				C97,212.1,97,220,105.4,224.8"/>
		</g>
		<g>
			<polygon class="st58" points="126.5,210 110.4,219.3 104.6,215.9 120.6,206.6 			"/>
		</g>
		<g>
			<path class="st58" d="M71.4,219.6c-0.5,0.2-1,0.4-1.5,0.6c-0.8,0.5-1.4,1-1.6,1.7l-34.7-20l0.7-0.4l2.8-1.6L71.4,219.6z"/>
		</g>
		<g>
			<polygon class="st6" points="318.7,162.3 210.9,225 102.3,162.3 210.2,99.7 			"/>
		</g>
		<g>
			<path class="st6" d="M79,220.2c2.1,1.2,2.4,3,1.1,4.4c-0.3,0.3-0.6,0.6-1.1,0.8c-0.5,0.3-1.2,0.6-1.8,0.7
				c-2.4,0.6-5.3,0.4-7.3-0.7c-1.7-1-2.3-2.4-1.7-3.6c0.3-0.6,0.8-1.2,1.6-1.7c0.4-0.3,0.9-0.5,1.5-0.6
				C73.8,218.8,76.9,219,79,220.2z"/>
		</g>
		<g>
			<path class="st60" d="M145.7,262.5l-2.8,1.6l-65.7-37.9c0.7-0.2,1.3-0.4,1.8-0.7c0.4-0.3,0.8-0.5,1.1-0.8L145.7,262.5z"/>
		</g>
		<g>
			<polygon class="st8" points="134.8,276.6 134.7,292.9 13.4,222.9 13.5,206.6 			"/>
		</g>
		<g>
			<polygon class="st9" points="361,145.1 361,161.4 134.7,292.9 134.8,276.6 			"/>
		</g>
		<g>
			<path class="st60" d="M254.5,59.1l134.1,77.4L134.1,284.4L0,207L254.5,59.1z M361,145.1l14.8-8.6l-121.3-70l-241,140.1l121.3,70
				L361,145.1"/>
		</g>
		<g>
			<path class="st61" d="M254.5,66.5l121.3,70l-14.8,8.6l-121.3-70L254.5,66.5z M359.2,141.7l10.6-6.1l-2.1-1.2l-10.6,6.1
				L359.2,141.7 M356.4,140l7.8-4.5l-2.1-1.2l-7.8,4.5L356.4,140 M353.6,138.4l4.9-2.9l-2.1-1.2l-4.9,2.9L353.6,138.4 M350.7,136.7
				l2.1-1.2l-2.1-1.2l-2.1,1.2L350.7,136.7"/>
		</g>
		<g>
			<polygon class="st7" points="388.6,136.5 388.5,152.8 134.1,300.7 134.1,284.4 			"/>
		</g>
		<g>
			<polygon class="st1" points="134.1,284.4 134.1,300.7 0,223.3 0,207 			"/>
		</g>
	</g>
</g>
<g>
	<g class="st0">
		<g>
			<polygon class="st36" points="323.3,40.5 323.3,56.9 310.6,64.2 310.6,47.9 			"/>
		</g>
		<g>
			<polygon class="st62" points="282.5,49.5 282.4,65.8 205,36.8 205,20.5 			"/>
		</g>
		<g>
			<polygon class="st36" points="310.6,47.9 310.6,64.2 297.9,71.6 297.9,55.3 			"/>
		</g>
		<g>
			<polygon class="st36" points="205,20.5 205,36.8 126.1,82.7 126.2,66.4 			"/>
		</g>
		<g class="st0">
			<defs>
				<path id="SVGID_28_" class="st0" d="M77.3,65.4l0-16.3c0,4.8,3.5,9.8,10.3,13.7c11.2,6.5,27.5,7.7,38.6,3.5l0,16.3
					c-11,4.3-27.3,3-38.6-3.5C80.8,75.2,77.3,70.2,77.3,65.4z"/>
			</defs>
			<clipPath id="SVGID_29_">
				<use xlink:href="#SVGID_28_"  style="overflow:visible;"/>
			</clipPath>
			<g class="st63">
				<path class="st33" d="M126.2,66.4l0,16.3c-0.6,0.2-1.1,0.4-1.7,0.6l0-16.3C125,66.8,125.6,66.6,126.2,66.4"/>
				<path class="st32" d="M124.5,67l0,16.3c-1.5,0.5-3.1,0.9-4.7,1.2l0-16.3C121.4,67.8,123,67.4,124.5,67"/>
				<path class="st31" d="M119.8,68.1l0,16.3c-1.1,0.2-2.3,0.4-3.4,0.5l0-16.3C117.5,68.5,118.6,68.3,119.8,68.1"/>
				<path class="st30" d="M116.3,68.6l0,16.3c-1,0.1-2.1,0.2-3.1,0.2l0-16.3C114.3,68.8,115.3,68.7,116.3,68.6"/>
				<path class="st29" d="M113.2,68.8l0,16.3c-1,0-2,0-3,0l0-16.3C111.2,68.8,112.2,68.8,113.2,68.8"/>
				<path class="st28" d="M110.2,68.8l0,16.3c-1,0-2-0.1-3-0.2l0-16.3C108.2,68.7,109.2,68.8,110.2,68.8"/>
				<path class="st27" d="M107.2,68.7l0,16.3c-1-0.1-2.1-0.2-3.1-0.3l0-16.3C105.1,68.5,106.2,68.6,107.2,68.7"/>
				<path class="st26" d="M104.1,68.3l0,16.3c-1.1-0.2-2.2-0.3-3.3-0.6l0-16.3C101.9,68,103,68.2,104.1,68.3"/>
				<path class="st25" d="M100.8,67.7l0,16.3c-1.2-0.3-2.4-0.5-3.6-0.9l0-16.3C98.4,67.2,99.6,67.5,100.8,67.7"/>
				<path class="st24" d="M97.2,66.9l0,16.3c-1.5-0.4-2.9-0.9-4.3-1.4l0-16.3C94.3,66,95.8,66.4,97.2,66.9"/>
				<path class="st23" d="M92.9,65.4l0,16.3c-1.9-0.7-3.6-1.6-5.3-2.5c-6.8-3.9-10.3-9-10.3-13.7l0-16.3c0,4.8,3.5,9.8,10.3,13.7
					C89.3,63.8,91.1,64.7,92.9,65.4"/>
			</g>
		</g>
		<g>
			<polygon class="st36" points="297.9,55.3 297.9,71.6 221.8,115.8 221.8,99.5 			"/>
		</g>
		<g class="st0">
			<defs>
				<path id="SVGID_30_" class="st0" d="M172.9,98.6l0-16.3c0,4.8,3.5,9.8,10.3,13.7c11.2,6.5,27.5,7.7,38.6,3.5l0,16.3
					c-11,4.3-27.3,3-38.6-3.5C176.4,108.4,172.9,103.4,172.9,98.6z"/>
			</defs>
			<clipPath id="SVGID_31_">
				<use xlink:href="#SVGID_30_"  style="overflow:visible;"/>
			</clipPath>
			<g class="st64">
				<path class="st33" d="M221.8,99.5l0,16.3c-0.6,0.2-1.1,0.4-1.7,0.6l0-16.3C220.7,99.9,221.3,99.7,221.8,99.5"/>
				<path class="st32" d="M220.1,100.1l0,16.3c-1.5,0.5-3.1,0.9-4.7,1.2l0-16.3C217,101,218.6,100.6,220.1,100.1"/>
				<path class="st31" d="M215.4,101.3l0,16.3c-1.1,0.2-2.3,0.4-3.4,0.5l0-16.3C213.1,101.7,214.3,101.5,215.4,101.3"/>
				<path class="st30" d="M212,101.8l0,16.3c-1,0.1-2.1,0.2-3.1,0.2l0-16.3C209.9,101.9,211,101.9,212,101.8"/>
				<path class="st29" d="M208.9,102l0,16.3c-1,0-2,0-3,0l0-16.3C206.9,102,207.9,102,208.9,102"/>
				<path class="st28" d="M205.9,102l0,16.3c-1,0-2-0.1-3-0.2l0-16.3C203.9,101.9,204.9,102,205.9,102"/>
				<path class="st27" d="M202.9,101.8l0,16.3c-1-0.1-2.1-0.2-3.1-0.3l0-16.3C200.8,101.6,201.8,101.7,202.9,101.8"/>
				<path class="st26" d="M199.7,101.5l0,16.3c-1.1-0.2-2.2-0.3-3.3-0.6l0-16.3C197.6,101.1,198.7,101.3,199.7,101.5"/>
				<path class="st25" d="M196.5,100.9l0,16.3c-1.2-0.3-2.4-0.5-3.6-0.9l0-16.3C194,100.4,195.3,100.7,196.5,100.9"/>
				<path class="st24" d="M192.9,100l0,16.3c-1.5-0.4-2.9-0.9-4.3-1.4l0-16.3C190,99.1,191.4,99.6,192.9,100"/>
				<path class="st23" d="M188.6,98.6l0,16.3c-1.9-0.7-3.6-1.6-5.3-2.5c-6.8-3.9-10.3-9-10.3-13.7l0-16.3c0,4.8,3.5,9.8,10.3,13.7
					C184.9,97,186.7,97.9,188.6,98.6"/>
			</g>
		</g>
		<g>
			<path class="st58" d="M323.3,40.5l-12.7,7.4l-12.7,7.4l-76.1,44.2c-11,4.3-27.3,3-38.6-3.5c-12.3-7.1-13.8-17.9-3.3-24
				c10.5-6.1,29-5.3,41.4,1.8c3.4,2,6,4.2,7.7,6.6l53.4-31l-77.4-29l-78.8,45.8c-11,4.3-27.3,3-38.6-3.5c-12.3-7.1-13.8-17.9-3.3-24
				s29-5.3,41.4,1.8c3.4,2,6,4.2,7.7,6.6l56.1-32.6l12.7-7.4L214.9,0L323.3,40.5z"/>
		</g>
	</g>
</g>
</svg>
