<?xml version="1.0" encoding="utf-8"?>
<!-- Generator: Adobe Illustrator 19.1.0, SVG Export Plug-In . SVG Version: 6.00 Build 0)  -->
<svg version="1.1" xmlns="http://www.w3.org/2000/svg" xmlns:xlink="http://www.w3.org/1999/xlink" x="0px" y="0px"
	 viewBox="0 0 219.2 237.8" enable-background="new 0 0 219.2 237.8" xml:space="preserve">
<g id="Layer_1">
	<g>
		<path fill="#000D7F" d="M116.1,122.1V157c3-1,5.9-2.1,8.9-3.5c11-5,20.4-11.6,28.4-20l-10.5-11.3c-0.9,0-1.8-0.1-2.7-0.1H116.1z"
			/>
		<path fill="#FFFFFF" d="M77.7,122.9c-1.2-0.6-2.3-1.2-3.5-1.9c-6.1-3.7-10.9-8.8-14.4-15.3C56.4,99.2,54.7,92,54.7,84
			c0-8,1.7-15.2,5.2-21.7c3.5-6.5,8.3-11.6,14.4-15.3c6.1-3.7,12.8-5.6,20.2-5.6c6.4,0,12.9,1.8,19.5,5.3c6.6,3.6,12.2,8.3,17,14.4
			l22.2-26.8c-7.4-7.8-16.4-14-27-18.5C115.5,11.3,104.8,9,93.9,9c-14.8,0-28.2,3.3-40.1,9.8c-11.9,6.6-21.3,15.6-28.2,27
			c-6.8,11.5-10.3,24.3-10.3,38.6c0,14.4,3.4,27.4,10.1,39C32,135,41.3,144.2,53,150.9c7.7,4.4,15.9,7.3,24.7,8.8V122.9z"/>
	</g>
	<g opacity="0.5">
		<path fill="#FFFFFF" d="M181.8,100.1c11.8,6.1,21,14.8,27.6,25.9c6.6,11.1,9.9,23.9,9.9,38.2c0,14.4-3.3,27.2-10,38.3
			c-6.6,11.2-16,19.8-28.1,26c-12.1,6.2-26,9.2-41.6,9.2H77.7V90.9H141C156.4,90.9,170,93.9,181.8,100.1z M161.8,201.5
			c5.7-3.5,10.2-8.5,13.4-14.9c3.2-6.4,4.8-13.8,4.8-22c0-8.4-1.7-15.8-5.1-22.2c-3.4-6.4-8.1-11.4-14.1-15
			c-6-3.6-12.9-5.3-20.5-5.3h-24.1v84.7h26C149.5,206.7,156.1,205,161.8,201.5z"/>
	</g>
	<g>
		<path fill="none" d="M154,94.2v42.1c6-2.9,10.2-6.6,14.6-11.2l22.2,24.1c-8,8.4-17.2,15.1-28.1,20c-3,1.4-5.7,2.5-8.7,3.5v27.5h53
			v-106H154z"/>
		<path fill="#FFFFFF" d="M155.2,131.7l-23.6-25.9c-4.8,4.9-10.2,8.9-15.6,12.1V157c2.2-1.1,5.9-2.3,9.1-3.8
			C136.9,147.9,146.6,140.7,155.2,131.7z"/>
	</g>
</g>
<g id="Layer_2">
</g>
</svg>
