<?xml version="1.0" encoding="utf-8"?>
<!-- Generator: Adobe Illustrator 19.1.0, SVG Export Plug-In . SVG Version: 6.00 Build 0)  -->
<svg version="1.1" id="Layer_1" xmlns="http://www.w3.org/2000/svg" xmlns:xlink="http://www.w3.org/1999/xlink" x="0px" y="0px"
	 viewBox="-293 308.5 113.3 146" style="enable-background:new -293 308.5 113.3 146;" xml:space="preserve">
<g>
	<g>
		<path class="st0" fill="#790133" d="M-241.5,308.5h23.9V419c-12.2,2.3-21.2,3.3-31,3.3c-29.1,0-44.3-13.2-44.3-38.4c0-24.3,16.1-40.1,41.1-40.1
			c3.9,0,6.8,0.3,10.4,1.2C-241.5,344.9-241.5,308.5-241.5,308.5z M-241.5,364.1c-2.8-0.9-5.1-1.2-8.1-1.2
			c-12.1,0-19.1,7.4-19.1,20.5c0,12.7,6.7,19.7,18.9,19.7c2.6,0,4.8-0.2,8.2-0.6V364.1z"/>
		<path class="st0" d="M-179.7,345.4v55.3c0,19.1-1.4,28.2-5.6,36.1c-3.9,7.6-9,12.4-19.5,17.7l-22.2-10.5c10.5-5,15.7-9.3,18.9-16
			c3.4-6.8,4.5-14.7,4.5-35.5v-47.1H-179.7z M-203.6,308.6h23.9v24.5h-23.9V308.6z"/>
	</g>
</g>
</svg>
