<svg fill="#790133" version="1.1" id="Layer_1" xmlns="http://www.w3.org/2000/svg" xmlns:xlink="http://www.w3.org/1999/xlink" x="0px" y="0px"
	 viewBox="0 0 410.9 410.9" style="enable-background:new 0 0 410.9 410.9;" xml:space="preserve">

<g>
	<path  d="M126.5,300.8c-13.8,14.6-17.7,33-10,37.5c7.2,4.1,23.8-0.8,35.8-13.8c3.9-4.3,7.1-8.9,9.5-13.8
		c0.5-1,0.9-2,1.3-3c0.4-1,0.8-2,1.1-3.1c3.1-9.3,3.4-19.6,0.4-30.7c-0.6,0.3-1.3,0.7-1.9,1l0,0.1
		C162.8,275,141.3,285.1,126.5,300.8z"/>
	<path d="M205.4,0C92,0,0,92,0,205.4c0,113.5,92,205.4,205.4,205.4c113.5,0,205.4-92,205.4-205.4
		C410.9,92,318.9,0,205.4,0z M272.4,182.2c-35.6,13.8-65.1,11.6-77.2,7.6c-13.8-4.5-21.8-13.6-23.8-18.7c-0.8-2-2.1-5.4,0-6.5
		c1.3-0.7,1.8-0.5,5.3,3.3c3.3,3.6,16.5,13.3,41.6,10.5c65.8-7.4,105.5-58.5,93-86.1c-8.8-19.3-59.5-28-122.9,3.6
		c-77.4,38.6-81.6,70.3-82.2,82.4c-1.8,33.2,41,50.7,64.1,75.4c0.5,0.6,1.1,1.2,1.6,1.8c7-2.6,16.7-4.1,32.1-4.3
		c37.4-0.6,58.6,24,57.7,46.1c-0.7,17.4-16.6,24.5-19.6,25c-2.2,0.4-3.3,0.4-3.6-1.3c-0.2-1.2,0.6-1.7,3.1-3.3
		c2.5-1.6,10.1-6.7,11.4-16.2c1.4-9.4-5.7-31.9-41.8-36.1c-12.8-1.5-22.8-0.5-31.4,1.8c6.2,13.8,7.4,41.5-6.9,62.9
		c-14.9,22.2-42.6,35.7-69.6,28.2c-8.7-2.4-21.9-20.4-10.5-45.6c10.8-23.8,56.8-47.1,63.1-50.2v-0.1c-21.3-18.4-73.2-43.1-80.5-81
		c-2.1-10.7,3-36.4,34.5-65.9c26.5-24.8,63.4-43.8,97.5-55.9c57.3-20.3,117.8-8.3,127.1,28.1C343.4,123.8,312.3,166.7,272.4,182.2z"
		/>
</g>
</svg>
